<svg width="242" height="191" viewBox="0 0 242 191" fill="none" xmlns="http://www.w3.org/2000/svg">
<path d="M71.4074 186.628C74.322 187.803 78.506 189.261 83.583 190.483C81.0915 190.812 78.506 191 75.9205 191C33.9879 191 0 148.221 0 95.5235C0 42.8258 33.9879 0 75.9205 0C78.506 0 81.0445 0.188041 83.536 0.517108C78.506 1.73936 74.3691 3.14965 71.4545 4.32489C71.4545 4.32489 71.3606 4.32489 71.3136 4.32489C71.1726 4.3719 71.0314 4.41892 70.8904 4.51293C70.4673 4.70097 70.0441 4.84199 69.6211 5.03003C69.245 5.21806 68.8219 5.3591 68.4458 5.54713C67.7407 5.8762 67.2706 6.11125 66.9885 6.20527C38.4067 19.8851 18.0986 54.6722 18.0986 95.4295C18.0986 136.187 38.9708 171.867 68.1167 185.171C68.8689 185.547 69.9972 186.017 71.4074 186.581" fill="#FED109"/>
<path d="M94.6301 179.951C90.4933 181.502 86.2155 182.584 81.7966 183.148C54.8601 168.481 35.9622 134.728 35.9622 95.4748C35.9622 56.2218 54.8601 22.4219 81.7966 7.75488C86.2155 8.319 90.4932 9.40022 94.583 10.9515C70.4671 26.9348 54.0608 58.7603 54.0608 95.4278C54.0608 132.095 70.5141 163.921 94.583 179.904" fill="#EBA921"/>
<path d="M115.596 166.837C112.353 169.798 108.921 172.431 105.395 174.593C85.2281 157.435 71.9711 128.383 71.9711 95.4761C71.9711 62.5693 85.2281 33.5174 105.395 16.3589C108.921 18.5683 112.306 21.1539 115.596 24.1625C99.942 41.6501 90.1171 67.1293 90.1171 95.5231C90.1171 123.917 99.989 149.349 115.596 166.837Z" fill="#B6862D"/>
<path d="M120.579 190.295C123.541 190.718 126.55 191 129.652 191C171.585 191 205.573 148.221 205.573 95.5235C205.573 42.8258 171.585 0 129.652 0C126.597 0 123.588 0.235055 120.579 0.705151C158.234 6.3463 187.474 46.6335 187.474 95.5235C187.474 144.413 158.234 184.701 120.579 190.295Z" fill="#EBA921"/>
<path d="M98.1562 186.628C95.2416 187.803 91.0579 189.261 85.9809 190.483C88.4724 190.812 91.058 191 93.6435 191C135.576 191 169.564 148.221 169.564 95.5235C169.564 42.8258 135.576 0 93.6435 0C91.058 0 88.5195 0.188041 86.028 0.517108C91.058 1.73936 95.1946 3.14965 98.1092 4.32489C98.1092 4.32489 98.2033 4.32489 98.2503 4.32489C98.3914 4.3719 98.5322 4.41892 98.6733 4.51293C99.0963 4.70097 99.5195 4.84199 99.9426 5.03003C100.319 5.21806 100.742 5.3591 101.118 5.54713C101.823 5.8762 102.293 6.11125 102.575 6.20527C131.157 19.8851 151.465 54.6722 151.465 95.4295C151.465 136.187 130.64 171.867 101.447 185.171C100.695 185.547 99.5665 186.017 98.1562 186.581" fill="#FED109"/>
<path d="M221.133 118.838C213.612 156.728 188.039 185.592 156.542 190.292C159.504 190.716 162.512 190.998 165.615 190.998C201.154 190.998 231.005 160.3 239.279 118.838H221.18H221.133Z" fill="#B6862D"/>
<path d="M241.347 88.9422H215.069C214.74 83.207 214.035 77.6129 212.954 72.1597H221.133C213.565 34.27 187.992 5.40611 156.542 0.705151C159.504 0.282065 162.512 0 165.615 0C171.632 0 177.649 0.893189 183.432 2.63254C191.235 4.98302 198.522 8.88483 205.009 13.8208C211.826 19.0389 217.702 25.3852 222.638 32.4366C227.903 39.9582 232.039 48.2319 235.095 56.8816C238.715 67.1297 240.783 77.9889 241.347 88.8951" fill="#B6862D"/>
</svg>
