<svg width="810" height="703" viewBox="0 0 810 703" fill="none" xmlns="http://www.w3.org/2000/svg">
<path d="M450.928 569.202C449.634 548.372 447.419 540.392 436.343 537.897C435.062 535.175 433.675 532.733 432.18 530.558C431.366 529.37 430.526 528.263 429.645 527.235C417.342 512.73 399.594 513.611 383.675 521.697C362.352 532.519 357.468 570.816 368.303 577.875C374.321 581.798 380.739 582.599 385.85 583.867C389.947 584.894 393.203 586.228 394.737 589.725C395.218 590.819 395.991 591.526 396.979 591.926C396.432 592.607 396.058 593.341 395.898 594.181C394.417 601.907 402.063 614.638 411.604 613.343C421.145 612.049 455.866 597.17 455.372 583.52C455.145 577.328 454.158 571.804 450.928 569.202Z" fill="url(#paint0_linear_888_6414)"/>
<path d="M347.153 346.972C346.886 347.612 346.966 348.373 347.433 348.96L348.808 350.668C349.275 351.242 349.995 351.482 350.689 351.348C364.834 374.593 356 400.988 362.445 408.754C365.634 412.584 371.693 408.167 373.014 397.612C374.041 400.707 375.215 402.936 376.87 403.95C383.929 408.287 386.518 397.091 380.339 382.173C386.504 389.552 392.629 394.409 396.872 391.874L397.393 391.447C400.756 387.817 397.286 380.825 391.335 373.259C404.639 382.4 416.128 382.199 413.352 374.393C412.698 372.552 410.763 370.937 407.948 369.296C418.543 370.203 424.134 365.186 421.038 361.276C414.78 353.363 387.118 356.499 367.329 337.844C367.583 337.204 367.503 336.457 367.035 335.883L365.661 334.175C365.194 333.601 364.46 333.361 363.78 333.494L360.897 329.945C357.174 325.354 350.436 324.647 345.845 328.37C341.255 332.093 340.548 338.832 344.271 343.422L347.153 346.972Z" fill="url(#paint1_linear_888_6414)"/>
<path d="M730.843 494.862C731.844 494.048 732.845 493.207 733.819 492.34C773.557 457.139 777.24 396.371 742.039 356.632C707.972 318.175 649.979 313.492 610.255 345.117L609.427 341.594L590.799 327.022L594.242 340.5L577.922 342.515L600.313 352.643L602.355 352.162C592.881 361.556 585.742 372.498 580.991 384.228L568.208 383.854L578.203 392.047C578.016 392.661 577.829 393.288 577.656 393.915L567.007 403.963L575.707 402.122C575.174 404.897 574.76 407.686 574.466 410.488C570.196 406.819 565.259 403.87 559.775 401.788C545.55 396.397 530.285 397.745 516.807 405.591C509.001 410.128 502.116 416.653 496.551 424.62C496.058 423.539 495.524 422.458 494.977 421.39C486.597 405.097 473.773 392.848 458.855 386.896C442.909 380.518 425.895 381.572 409.656 389.925C393.416 398.279 382.661 411.516 378.578 428.196C374.761 443.795 377.27 461.355 385.65 477.635C394.03 493.928 406.854 506.178 421.772 512.129C434.182 517.093 447.246 517.547 460.096 513.57C461.737 515.265 464.339 515.772 466.554 514.638L468.876 513.437L494.296 562.849L489.759 574.805C487.251 574.645 484.822 576.073 483.808 578.501L458.121 640.004C456.813 643.153 458.361 646.756 461.55 647.97L469.957 651.159C473.146 652.373 476.709 650.692 477.803 647.476L499.38 584.413C499.407 584.319 499.434 584.226 499.46 584.119C499.487 584.306 499.527 584.48 499.554 584.666C499.634 585.053 499.714 585.44 499.807 585.827C501.502 593.34 505.345 600.319 511.016 605.79C511.336 606.097 511.67 606.404 512.004 606.711C514.285 608.779 516.834 610.594 519.636 612.128L522.238 617.199L526.388 615.064C528.056 615.611 529.751 616.051 531.446 616.372C531.499 616.385 531.566 616.398 531.619 616.411C531.646 616.411 531.672 616.425 531.686 616.425C539.759 617.893 547.992 616.812 555.291 613.529C555.411 613.476 555.531 613.409 555.651 613.356C555.838 613.262 556.038 613.182 556.225 613.089C556.532 612.942 556.839 612.795 557.146 612.635C557.733 612.342 558.293 612.035 558.867 611.701C559.161 611.528 559.441 611.341 559.735 611.167C560.015 610.994 560.308 610.834 560.589 610.647C561.603 609.993 562.604 609.286 563.564 608.525C572.064 630.129 587.597 648.197 607.359 659.886C608.867 660.767 610.401 661.621 611.949 662.435C626.334 669.974 642.694 674.257 660.054 674.257C700.313 674.257 735.194 651.319 752.367 617.799C752.848 616.865 753.315 615.931 753.755 614.984C759.079 603.788 762.442 591.485 763.416 578.515C763.496 577.407 763.563 576.3 763.616 575.179C763.683 573.671 763.723 572.15 763.723 570.615C763.723 547.01 755.837 525.259 742.559 507.846C739.01 503.175 735.087 498.838 730.843 494.862ZM582.793 460.742C583.033 461.262 583.273 461.796 583.527 462.316C583.207 464.331 582.78 466.359 582.272 468.414L579.75 467.454L582.353 460.581L582.793 460.742ZM576.801 475.206L579.404 468.334L582.032 469.335C581.378 471.804 580.591 474.299 579.63 476.794C579.684 476.647 579.737 476.501 579.79 476.354L576.801 475.206ZM567.367 497.718C567.261 497.838 567.167 497.971 567.06 498.078C566.9 498.251 566.74 498.425 566.593 498.598C566.727 498.438 566.874 498.291 567.007 498.131L560.215 495.556L562.817 488.684L569.689 491.286L567.154 497.958C567.221 497.878 567.301 497.798 567.367 497.718ZM554.157 508.82C553.37 509.287 552.582 509.714 551.782 510.127L546.551 508.139L549.153 501.267L556.025 503.869L554.157 508.82ZM554.984 508.326C554.917 508.366 554.864 508.406 554.797 508.446C554.771 508.459 554.731 508.486 554.704 508.499C554.797 508.433 554.891 508.379 554.984 508.326ZM500.381 499.506C499.474 498.385 498.633 497.21 497.859 496.01L499.62 491.352L506.492 493.955L503.89 500.827L500.381 499.506ZM503.557 501.721L503.21 502.641C502.676 502.108 502.169 501.561 501.662 501L503.557 501.721ZM547.805 455.324L540.933 452.722L543.535 445.85L550.407 448.452L547.805 455.324ZM551.301 448.785L558.173 451.387L555.571 458.26L548.699 455.658L551.301 448.785ZM547.472 456.218L544.87 463.09L537.997 460.488L540.599 453.616L547.472 456.218ZM544.523 463.984L541.921 470.856L535.048 468.254L537.65 461.382L544.523 463.984ZM537.09 460.141L530.218 457.539L532.82 450.667L539.692 453.269L537.09 460.141ZM536.756 461.035L534.154 467.907L527.282 465.305L529.884 458.433L536.756 461.035ZM533.807 468.801L531.205 475.673L524.333 473.071L526.935 466.199L533.807 468.801ZM523.439 472.724L516.567 470.122L519.169 463.25L526.041 465.852L523.439 472.724ZM523.986 473.952L530.858 476.554L528.256 483.426L521.384 480.824L523.986 473.952ZM531.752 476.901L538.625 479.503L536.023 486.375L529.15 483.773L531.752 476.901ZM532.086 476.007L534.688 469.135L541.56 471.737L538.958 478.609L532.086 476.007ZM542.468 472.084L549.34 474.686L546.738 481.558L539.866 478.956L542.468 472.084ZM542.801 471.19L545.403 464.318L552.275 466.92L549.673 473.792L542.801 471.19ZM545.75 463.424L548.352 456.552L555.224 459.154L552.622 466.026L545.75 463.424ZM556.118 459.501L562.991 462.103L560.388 468.975L553.516 466.373L556.118 459.501ZM556.452 458.607L559.054 451.734L565.926 454.336L563.324 461.209L556.452 458.607ZM558.507 450.507L551.635 447.905L554.237 441.033L561.109 443.635L558.507 450.507ZM550.754 447.558L543.882 444.956L546.484 438.084L553.356 440.686L550.754 447.558ZM542.988 444.622L536.116 442.02L538.718 435.148L545.59 437.75L542.988 444.622ZM542.641 445.503L540.039 452.375L533.167 449.773L535.769 442.901L542.641 445.503ZM532.273 449.439L525.401 446.837L528.003 439.965L534.875 442.567L532.273 449.439ZM531.939 450.32L529.337 457.192L522.465 454.59L525.067 447.718L531.939 450.32ZM528.99 458.086L526.388 464.958L519.516 462.356L522.118 455.484L528.99 458.086ZM518.622 462.023L511.75 459.421L514.352 452.548L521.224 455.15L518.622 462.023ZM518.288 462.903L515.686 469.775L508.814 467.173L511.416 460.301L518.288 462.903ZM516.234 471.003L523.106 473.605L520.504 480.477L513.631 477.875L516.234 471.003ZM521.051 481.718L527.923 484.32L525.321 491.192L518.449 488.59L521.051 481.718ZM528.803 484.667L535.676 487.269L533.074 494.141L526.201 491.539L528.803 484.667ZM536.57 487.603L543.442 490.205L540.84 497.077L533.968 494.475L536.57 487.603ZM536.917 486.722L539.519 479.85L546.391 482.452L543.789 489.324L536.917 486.722ZM547.285 482.786L554.157 485.388L551.555 492.26L544.683 489.658L547.285 482.786ZM547.618 481.905L550.22 475.033L557.093 477.635L554.49 484.507L547.618 481.905ZM550.567 474.139L553.169 467.267L560.042 469.869L557.439 476.741L550.567 474.139ZM560.936 470.216L567.808 472.818L565.206 479.69L558.334 477.088L560.936 470.216ZM561.269 469.322L563.871 462.45L570.743 465.052L568.141 471.924L561.269 469.322ZM564.218 461.556L566.82 454.683L573.692 457.285L571.09 464.158L564.218 461.556ZM566.273 453.456L559.401 450.854L562.003 443.982L568.875 446.584L566.273 453.456ZM561.456 442.741L554.584 440.139L557.186 433.266L564.058 435.869L561.456 442.741ZM556.639 432.039L549.767 429.437L552.369 422.565L559.241 425.167L556.639 432.039ZM556.305 432.919L553.703 439.792L546.831 437.19L549.433 430.317L556.305 432.919ZM545.937 436.856L539.065 434.254L541.667 427.382L548.539 429.984L545.937 436.856ZM538.171 433.907L531.299 431.305L533.901 424.433L540.773 427.035L538.171 433.907ZM537.824 434.801L535.222 441.673L528.35 439.071L530.952 432.199L537.824 434.801ZM527.456 438.724L520.584 436.122L523.186 429.25L530.058 431.852L527.456 438.724ZM527.122 439.618L524.52 446.49L517.648 443.888L520.25 437.016L527.122 439.618ZM524.173 447.384L521.571 454.256L514.699 451.654L517.301 444.782L524.173 447.384ZM513.805 451.307L506.933 448.705L509.535 441.833L516.407 444.435L513.805 451.307ZM513.471 452.201L510.869 459.074L503.997 456.472L506.599 449.599L513.471 452.201ZM503.744 454.403C503.69 452.388 503.557 450.373 503.317 448.345L505.692 449.252L503.744 454.403ZM503.757 457.392L510.522 459.954L507.92 466.826L503.143 465.012C503.49 462.516 503.704 459.968 503.757 457.392ZM508.467 468.067L515.339 470.669L512.737 477.542L505.865 474.939L508.467 468.067ZM513.285 478.769L520.157 481.371L517.555 488.243L510.682 485.641L513.285 478.769ZM517.208 489.137L514.606 496.01L507.733 493.407L510.336 486.535L517.208 489.137ZM514.259 496.904L511.657 503.776L504.784 501.174L507.387 494.301L514.259 496.904ZM515.153 497.25L522.025 499.853L519.423 506.725L512.551 504.123L515.153 497.25ZM515.486 496.356L518.088 489.484L524.96 492.086L522.358 498.958L515.486 496.356ZM525.868 492.433L532.74 495.035L530.138 501.908L523.266 499.305L525.868 492.433ZM533.621 495.369L540.493 497.971L537.891 504.843L531.019 502.241L533.621 495.369ZM541.387 498.318L548.259 500.92L545.657 507.792L538.785 505.19L541.387 498.318ZM541.734 497.424L544.336 490.552L551.208 493.154L548.606 500.026L541.734 497.424ZM552.102 493.501L558.974 496.103L556.372 502.975L549.5 500.373L552.102 493.501ZM552.436 492.607L555.038 485.735L561.91 488.337L559.308 495.209L552.436 492.607ZM555.385 484.841L557.987 477.969L564.859 480.571L562.257 487.443L555.385 484.841ZM565.753 480.918L572.625 483.52L570.023 490.392L563.151 487.79L565.753 480.918ZM566.1 480.023L568.702 473.151L575.574 475.753L572.972 482.626L566.1 480.023ZM569.035 472.271L571.637 465.399L578.509 468.001L575.907 474.873L569.035 472.271ZM571.984 464.505L574.586 457.632L581.458 460.234L578.856 467.107L571.984 464.505ZM574.039 456.405L567.167 453.803L569.769 446.931L576.641 449.533L574.039 456.405ZM569.222 445.69L562.35 443.088L564.952 436.215L571.824 438.818L569.222 445.69ZM564.405 434.974L557.533 432.372L560.135 425.5L567.007 428.102L564.405 434.974ZM560.482 424.606L563.084 417.734L569.956 420.336L567.354 427.208L560.482 424.606ZM559.588 424.273L552.716 421.671L555.318 414.798L562.19 417.401L559.588 424.273ZM551.822 421.324L544.95 418.722L547.552 411.85L554.424 414.452L551.822 421.324ZM551.488 422.218L548.886 429.09L542.014 426.488L544.616 419.616L551.488 422.218ZM541.107 426.141L534.234 423.539L536.836 416.667L543.709 419.269L541.107 426.141ZM533.354 423.192L526.482 420.59L529.084 413.718L535.956 416.32L533.354 423.192ZM533.007 424.086L530.405 430.958L523.533 428.356L526.135 421.484L533.007 424.086ZM522.639 428.009L515.766 425.407L518.369 418.535L525.241 421.137L522.639 428.009ZM522.305 428.903L519.703 435.775L512.831 433.173L515.433 426.301L522.305 428.903ZM519.356 436.669L516.754 443.541L509.882 440.939L512.484 434.067L519.356 436.669ZM508.988 440.592L502.116 437.99L504.718 431.118L511.59 433.72L508.988 440.592ZM508.641 441.486L506.039 448.358L503.183 447.278C502.836 444.582 502.329 441.873 501.662 439.164L501.769 438.884L508.641 441.486ZM502.022 470.803C502.409 469.215 502.729 467.614 502.983 465.986L507.56 467.72L504.958 474.593L501.368 473.231C501.609 472.431 501.822 471.617 502.022 470.803ZM505.518 475.82L512.39 478.422L509.788 485.294L502.916 482.692L505.518 475.82ZM509.441 486.202L506.839 493.074L499.967 490.472L502.569 483.6L509.441 486.202ZM504.437 502.068L511.31 504.67L509.989 508.139C507.8 506.738 505.772 505.137 503.93 503.375L504.437 502.068ZM512.204 505.003L519.076 507.605L517.434 511.915C515.086 510.995 512.871 509.9 510.816 508.646L512.204 505.003ZM519.97 507.952L526.842 510.554L525.454 514.197C523.079 513.77 520.69 513.116 518.329 512.249L519.97 507.952ZM520.303 507.058L522.905 500.186L529.778 502.788L527.176 509.66L520.303 507.058ZM530.685 503.135L537.557 505.737L534.955 512.609L528.083 510.007L530.685 503.135ZM535.502 513.85L537.397 514.571C536.65 514.664 535.902 514.731 535.155 514.771L535.502 513.85ZM535.836 512.956L538.438 506.084L545.31 508.686L543.548 513.343C542.161 513.73 540.746 514.05 539.332 514.277L535.836 512.956ZM546.204 509.033L550.607 510.701C549.446 511.248 548.286 511.755 547.098 512.196C546.297 512.489 545.497 512.756 544.696 513.01L546.204 509.033ZM556.919 504.216L559.508 505.203C559.268 505.39 559.027 505.577 558.787 505.764L558.707 505.67C558.267 506.044 557.826 506.404 557.386 506.765C556.746 507.205 556.105 507.632 555.451 508.032L556.919 504.216ZM557.253 503.322L559.855 496.45L566.313 498.905C565.005 500.333 563.644 501.694 562.243 502.935C561.629 503.482 561.016 504.003 560.375 504.51L557.253 503.322ZM570.57 491.633L571.717 492.06C570.85 493.314 569.956 494.528 569.035 495.689L570.57 491.633ZM570.917 490.739L573.519 483.867L576.041 484.827C574.867 487.082 573.612 489.231 572.265 491.259L570.917 490.739ZM573.852 482.972L576.455 476.1L579.457 477.235C578.55 479.57 577.549 481.812 576.468 483.96L573.852 482.972ZM581.966 458.913L581.805 459.354L574.933 456.752L577.535 449.88L578.683 450.32C579.63 453.202 580.725 456.085 581.966 458.913ZM578.082 448.412C578.149 448.652 578.229 448.892 578.309 449.132L577.869 448.972L578.082 448.412ZM577.642 446.904L576.988 448.625L570.116 446.023L572.718 439.151L576.028 440.405C576.495 442.594 577.028 444.756 577.642 446.904ZM575.801 439.298L573.065 438.257L574.84 433.573C575.093 435.495 575.414 437.403 575.801 439.298ZM574.506 430.945C574.533 431.145 574.56 431.358 574.586 431.558L572.171 437.91L565.299 435.308L567.901 428.436L574.506 430.945ZM573.933 421.497C573.933 421.51 573.933 421.51 573.933 421.524C573.746 421.297 573.559 421.083 573.372 420.857C573.559 421.07 573.746 421.284 573.933 421.497ZM571.531 418.882C572.051 419.415 572.558 419.949 573.052 420.51L571.184 419.802L571.531 418.882ZM573.946 421.857C573.986 424.54 574.146 427.222 574.4 429.89L568.235 427.555L570.837 420.683L573.946 421.857ZM570.797 418.134L570.29 419.456L563.418 416.853L564.725 413.397C566.927 414.785 568.955 416.373 570.797 418.134ZM563.911 412.864L562.523 416.507L555.651 413.904L557.293 409.594C557.146 409.541 556.999 409.474 556.852 409.408C559.374 410.355 561.723 411.529 563.911 412.864ZM556.399 409.247L554.757 413.558L547.885 410.955L549.273 407.299C551.662 407.726 554.037 408.38 556.399 409.247ZM540.64 406.685C543.188 406.592 545.75 406.752 548.326 407.152L547.018 410.609L540.146 408.006L540.64 406.685ZM546.671 411.503L544.069 418.375L537.197 415.773L539.799 408.9L546.671 411.503ZM539.599 406.739L539.252 407.66L537.33 406.926C538.077 406.846 538.838 406.792 539.599 406.739ZM535.395 407.232L538.905 408.567L536.303 415.439L529.431 412.837L531.192 408.18C532.58 407.78 533.981 407.473 535.395 407.232ZM530.044 408.487L528.523 412.477L524.12 410.809C526.055 409.888 528.03 409.114 530.044 408.487ZM522.946 411.382L528.19 413.371L525.588 420.243L518.715 417.641L520.597 412.677C521.371 412.236 522.145 411.796 522.946 411.382ZM519.276 413.477L517.821 417.307L515.219 416.32C516.54 415.292 517.888 414.345 519.276 413.477ZM514.365 417.014L517.475 418.188L514.872 425.06L508.427 422.618C510.309 420.563 512.297 418.695 514.365 417.014ZM507.733 423.379L514.539 425.954L511.937 432.826L505.065 430.224L507.6 423.539C507.64 423.485 507.68 423.432 507.733 423.379ZM505.732 425.781L504.171 429.89L503.023 429.463C503.89 428.182 504.798 426.955 505.732 425.781ZM502.463 430.264L503.824 430.785L501.248 437.577C500.928 436.376 500.568 435.161 500.181 433.96C500.915 432.679 501.675 431.452 502.463 430.264ZM501.102 474.152L504.624 475.487L502.022 482.359L498.499 481.024C499.5 478.809 500.368 476.514 501.102 474.152ZM501.675 483.253L499.073 490.125L494.456 488.377C495.804 486.308 497.018 484.133 498.086 481.892L501.675 483.253ZM491.387 473.205L492.788 475.927C492.441 476.781 492.081 477.608 491.681 478.436L491.134 478.222C491 477.421 490.88 476.621 490.787 475.807C490.707 475.086 490.64 474.352 490.573 473.618L491.387 473.205ZM490.493 472.417C490.48 472.071 490.453 471.724 490.44 471.377L490.88 472.217L490.493 472.417ZM491.187 470.389L493.069 471.096L491.868 471.71L491.187 470.389ZM490.533 469.122L490.4 468.868C490.4 468.695 490.413 468.521 490.413 468.361C490.413 468.521 490.4 468.681 490.4 468.841L492.762 462.623L493.335 462.329L496.111 463.384C495.791 465.719 495.324 468.014 494.71 470.256L494.189 470.523L490.533 469.122ZM482.393 465.959C482.38 466.213 482.38 466.479 482.367 466.733L480.032 467.934L476.522 461.102L483.234 457.646C482.794 460.435 482.513 463.21 482.393 465.959ZM482.433 472.578L480.552 468.908L482.34 467.987C482.313 469.522 482.34 471.056 482.433 472.578ZM451.382 453.042L444.55 456.552L441.041 449.72L447.873 446.21L451.382 453.042ZM448.847 445.703L455.679 442.194L459.188 449.026L452.356 452.535L448.847 445.703ZM440.534 448.732L437.024 441.9L443.856 438.391L447.366 445.223L440.534 448.732ZM436.517 440.926L433.008 434.094L439.84 430.584L443.349 437.416L436.517 440.926ZM435.53 441.433L428.698 444.942L425.188 438.11L432.02 434.601L435.53 441.433ZM427.723 445.449L420.891 448.959L417.382 442.127L424.214 438.617L427.723 445.449ZM428.23 446.437L431.74 453.269L424.908 456.778L421.398 449.946L428.23 446.437ZM429.205 445.93L436.037 442.42L439.546 449.252L432.714 452.762L429.205 445.93ZM440.053 450.227L443.563 457.059L436.731 460.568L433.221 453.736L440.053 450.227ZM444.07 458.033L447.579 464.865L440.747 468.374L437.238 461.542L444.07 458.033ZM445.057 457.526L451.889 454.016L455.399 460.848L448.567 464.358L445.057 457.526ZM452.863 453.509L459.695 450L463.205 456.832L456.373 460.341L452.863 453.509ZM456.666 441.686L463.498 438.177L467.008 445.009L460.176 448.519L456.666 441.686ZM456.159 440.699L452.65 433.867L459.482 430.357L462.991 437.19L456.159 440.699ZM455.172 441.206L448.34 444.716L444.83 437.883L451.662 434.374L455.172 441.206ZM444.323 436.909L440.814 430.077L447.646 426.568L451.155 433.4L444.323 436.909ZM440.307 429.103L436.797 422.271L443.629 418.762L447.139 425.594L440.307 429.103ZM439.319 429.61L432.487 433.12L428.978 426.288L435.81 422.778L439.319 429.61ZM431.513 433.627L424.681 437.136L421.172 430.304L428.004 426.795L431.513 433.627ZM423.707 437.643L416.875 441.153L413.365 434.321L420.197 430.811L423.707 437.643ZM415.887 441.66L409.055 445.169L405.546 438.337L412.378 434.828L415.887 441.66ZM416.394 442.647L419.904 449.479L413.072 452.989L409.562 446.157L416.394 442.647ZM420.411 450.453L423.92 457.285L417.088 460.795L413.579 453.963L420.411 450.453ZM424.441 458.26L427.95 465.092L421.118 468.601L417.609 461.769L424.441 458.26ZM425.415 457.753L432.247 454.243L435.756 461.075L428.924 464.585L425.415 457.753ZM436.264 462.063L439.773 468.895L432.941 472.404L429.431 465.572L436.264 462.063ZM440.28 469.869L443.789 476.701L436.957 480.21L433.448 473.378L440.28 469.869ZM441.267 469.362L448.1 465.852L451.609 472.684L444.777 476.194L441.267 469.362ZM449.074 465.345L455.906 461.836L459.415 468.668L452.583 472.177L449.074 465.345ZM456.88 461.329L463.712 457.819L467.221 464.651L460.389 468.161L456.88 461.329ZM464.699 457.312L471.531 453.803L475.041 460.635L468.209 464.144L464.699 457.312ZM464.192 456.325L460.683 449.493L467.515 445.983L471.024 452.815L464.192 456.325ZM464.473 437.67L471.305 434.161L474.814 440.993L467.982 444.502L464.473 437.67ZM463.965 436.682L460.456 429.85L467.288 426.341L470.798 433.173L463.965 436.682ZM459.949 428.876L456.439 422.044L463.272 418.535L466.781 425.367L459.949 428.876ZM458.961 429.383L452.129 432.893L448.62 426.061L455.452 422.551L458.961 429.383ZM448.113 425.087L444.603 418.255L451.436 414.745L454.945 421.577L448.113 425.087ZM444.096 417.267L440.587 410.435L447.419 406.926L450.928 413.758L444.096 417.267ZM443.109 417.774L436.277 421.284L432.767 414.452L439.599 410.942L443.109 417.774ZM435.303 421.791L428.471 425.3L424.961 418.468L431.793 414.959L435.303 421.791ZM427.497 425.807L420.664 429.317L417.155 422.485L423.987 418.975L427.497 425.807ZM419.69 429.837L412.858 433.347L409.349 426.514L416.181 423.005L419.69 429.837ZM411.871 433.854L405.039 437.363L401.529 430.531L408.361 427.022L411.871 433.854ZM404.065 437.87L397.233 441.38L393.723 434.547L400.555 431.038L404.065 437.87ZM404.572 438.858L408.081 445.69L401.249 449.199L397.74 442.367L404.572 438.858ZM408.588 446.664L412.098 453.496L405.266 457.005L401.756 450.173L408.588 446.664ZM412.605 454.47L416.114 461.302L409.282 464.811L405.773 457.979L412.605 454.47ZM416.621 462.276L420.131 469.108L413.299 472.618L409.789 465.786L416.621 462.276ZM420.638 470.096L424.147 476.928L417.315 480.437L413.806 473.605L420.638 470.096ZM421.625 469.589L428.457 466.079L431.967 472.911L425.135 476.421L421.625 469.589ZM432.474 473.885L435.983 480.717L429.151 484.227L425.642 477.395L432.474 473.885ZM436.49 481.691L440 488.524L433.168 492.033L429.658 485.201L436.49 481.691ZM437.478 481.184L444.31 477.675L447.819 484.507L440.987 488.016L437.478 481.184ZM445.284 477.168L452.116 473.658L455.626 480.491L448.793 484L445.284 477.168ZM453.09 473.151L459.922 469.642L463.432 476.474L456.6 479.983L453.09 473.151ZM460.91 469.135L467.742 465.625L471.251 472.457L464.419 475.967L460.91 469.135ZM468.716 465.118L475.548 461.609L479.057 468.441L472.225 471.95L468.716 465.118ZM476.015 460.114L472.506 453.282L479.338 449.773L482.847 456.605L476.015 460.114ZM471.998 452.308L468.489 445.476L475.321 441.967L478.831 448.799L471.998 452.308ZM472.279 433.653L479.111 430.144L482.62 436.976L475.788 440.486L472.279 433.653ZM471.772 432.666L468.262 425.834L475.094 422.324L478.604 429.157L471.772 432.666ZM467.755 424.86L464.246 418.028L471.078 414.518L474.587 421.35L467.755 424.86ZM463.739 417.04L460.229 410.208L467.061 406.699L470.571 413.531L463.739 417.04ZM462.751 417.547L455.919 421.057L452.41 414.225L459.242 410.715L462.751 417.547ZM451.903 413.251L448.393 406.419L455.225 402.909L458.735 409.741L451.903 413.251ZM447.886 405.444L444.377 398.612L451.209 395.103L454.718 401.935L447.886 405.444ZM446.912 405.951L440.08 409.461L436.57 402.629L443.402 399.119L446.912 405.951ZM439.092 409.968L432.26 413.477L428.751 406.645L435.583 403.136L439.092 409.968ZM431.286 413.985L424.454 417.494L420.945 410.662L427.777 407.152L431.286 413.985ZM423.48 418.001L416.648 421.51L413.139 414.678L419.971 411.169L423.48 418.001ZM415.661 422.018L408.828 425.527L405.319 418.695L412.151 415.185L415.661 422.018ZM407.854 426.034L401.022 429.543L397.513 422.711L404.345 419.202L407.854 426.034ZM400.048 430.064L393.216 433.573L389.707 426.741L396.539 423.232L400.048 430.064ZM396.245 441.887L389.413 445.396L385.904 438.564L392.736 435.055L396.245 441.887ZM396.752 442.874L400.262 449.706L393.43 453.216L389.92 446.384L396.752 442.874ZM400.769 450.68L404.278 457.512L397.446 461.022L393.937 454.19L400.769 450.68ZM404.785 458.486L408.295 465.319L401.463 468.828L397.953 461.996L404.785 458.486ZM408.815 466.306L412.325 473.138L405.492 476.647L401.983 469.815L408.815 466.306ZM412.832 474.112L416.341 480.944L409.509 484.454L406 477.622L412.832 474.112ZM416.848 481.918L420.358 488.75L413.526 492.26L410.016 485.428L416.848 481.918ZM417.836 481.411L424.668 477.902L428.177 484.734L421.345 488.243L417.836 481.411ZM428.684 485.708L432.194 492.54L425.362 496.05L421.852 489.217L428.684 485.708ZM432.701 493.528L436.21 500.36L429.378 503.869L425.869 497.037L432.701 493.528ZM433.688 493.02L440.52 489.511L444.03 496.343L437.198 499.853L433.688 493.02ZM441.494 489.004L448.326 485.495L451.836 492.327L445.004 495.836L441.494 489.004ZM449.301 484.974L456.133 481.465L459.642 488.297L452.81 491.806L449.301 484.974ZM457.107 480.958L463.939 477.448L467.448 484.28L460.616 487.79L457.107 480.958ZM464.926 476.941L471.758 473.432L475.268 480.264L468.436 483.773L464.926 476.941ZM472.732 472.925L479.564 469.415L482.66 475.42C482.687 475.753 482.727 476.074 482.767 476.394L476.255 479.743L472.732 472.925ZM482.9 477.568C483.074 478.849 483.274 480.13 483.528 481.385C483.541 481.425 483.541 481.465 483.554 481.491C483.928 483.92 484.275 486.242 484.622 488.47C484.662 488.724 484.702 488.977 484.742 489.231C484.008 490.098 483.247 490.952 482.447 491.779L476.762 480.717L482.9 477.568ZM483.594 455.631L480.325 449.266L485.903 446.397C484.929 449.466 484.155 452.548 483.594 455.631ZM479.805 448.292L476.295 441.46L483.127 437.95L486.503 444.515C486.463 444.649 486.41 444.782 486.357 444.929L479.805 448.292ZM484.115 437.443L490.96 433.92C489.679 436.456 488.505 439.098 487.464 441.82C487.304 442.234 487.17 442.661 487.01 443.088L484.115 437.443ZM490.773 462.396C490.813 462.063 490.853 461.729 490.893 461.395L491.948 461.796L490.773 462.396ZM491.494 463.277L490.493 465.919C490.533 465.185 490.573 464.451 490.64 463.717L491.494 463.277ZM493.349 461.075L494.056 459.207L494.67 460.395L493.349 461.075ZM495.177 461.382L495.577 462.156L494.47 461.742L495.177 461.382ZM496.164 460.875L496.404 460.755C496.391 460.928 496.378 461.089 496.351 461.262L496.164 460.875ZM496.498 459.447L495.657 459.888L494.59 457.806L495.884 454.403L496.605 454.67C496.631 456.285 496.605 457.873 496.498 459.447ZM495.324 453.176L493.362 452.428L496.151 450.987L495.324 453.176ZM496.578 453.656L496.231 453.522L496.538 452.722C496.538 453.029 496.565 453.336 496.578 453.656ZM495.404 443.942C495.43 444.075 495.457 444.222 495.484 444.355L495.27 444.275C495.324 444.168 495.364 444.062 495.404 443.942ZM495.097 444.716C495.043 444.862 494.99 445.009 494.937 445.169L495.684 445.449C495.937 446.864 496.124 448.278 496.271 449.679L492.895 451.414C493.522 449.199 494.256 446.971 495.097 444.716ZM492.521 452.869C492.508 452.949 492.481 453.029 492.468 453.109L494.99 454.07L494.003 456.672L492.361 453.482C492.415 453.282 492.468 453.069 492.521 452.869ZM493.469 458.059L492.375 460.942L491.014 460.421C491.254 458.673 491.574 456.912 491.961 455.137L493.469 458.059ZM491.921 432.092C491.894 432.132 491.881 432.172 491.854 432.226L483.608 436.469L480.098 429.637L488.812 425.153C489.973 427.462 491.014 429.77 491.921 432.092ZM488.305 424.166L479.591 428.649L476.082 421.817L484.422 417.521C485.783 419.629 487.09 421.844 488.305 424.166ZM483.794 416.6L475.561 420.83L472.052 413.998L479.097 410.368C480.739 412.33 482.313 414.398 483.794 416.6ZM478.35 409.528L471.545 413.024L468.035 406.192L472.679 403.803C474.654 405.551 476.549 407.459 478.35 409.528ZM464.859 397.959C467.248 399.453 469.557 401.134 471.785 403.029L467.528 405.218L464.019 398.386L464.859 397.959ZM463.752 397.278L463.512 397.398L463.312 397.011C463.458 397.105 463.605 397.198 463.752 397.278ZM466.541 405.725L459.709 409.234L456.199 402.402L463.031 398.893L466.541 405.725ZM461.577 396.05L462.538 397.905L455.706 401.415L452.196 394.582L455.038 393.115C457.253 393.942 459.442 394.916 461.577 396.05ZM453.597 392.621L451.689 393.608L450.742 391.767C451.689 392.02 452.65 392.314 453.597 392.621ZM449.301 391.393L450.702 394.115L443.87 397.625L440 390.086C443.136 390.232 446.245 390.673 449.301 391.393ZM438.732 390.059L442.895 398.132L436.063 401.641L430.379 390.579C433.168 390.179 435.957 390.006 438.732 390.059ZM429.218 390.779L435.076 402.162L428.244 405.671L421.559 392.688C424.121 391.847 426.669 391.206 429.218 390.779ZM420.504 393.035L427.256 406.165L420.424 409.674L413.405 396.037C415.767 394.863 418.129 393.862 420.504 393.035ZM412.445 396.557L419.464 410.195L412.631 413.704L405.879 400.574C407.921 399.119 410.109 397.772 412.445 396.557ZM404.959 401.214L411.644 414.198L404.812 417.707L398.954 406.325C400.809 404.524 402.81 402.802 404.959 401.214ZM398.153 407.166L403.838 418.228L397.006 421.737L392.842 413.651C394.417 411.369 396.178 409.207 398.153 407.166ZM392.149 414.705L396.018 422.244L389.186 425.754L387.785 423.045C388.986 420.136 390.427 417.347 392.149 414.705ZM387.265 424.419L388.212 426.261L386.304 427.248C386.598 426.288 386.918 425.354 387.265 424.419ZM385.877 428.716L388.719 427.248L392.229 434.08L385.397 437.59L384.436 435.735C384.769 433.347 385.25 430.998 385.877 428.716ZM384.222 437.723L384.409 438.097L384.169 438.217C384.196 438.057 384.209 437.883 384.222 437.723ZM384.089 439.511L384.93 439.084L388.439 445.916L384.182 448.105C383.942 445.183 383.902 442.327 384.089 439.511ZM384.302 449.279L388.946 446.891L392.455 453.723L385.65 457.219C385.023 454.55 384.583 451.895 384.302 449.279ZM385.917 458.326L392.963 454.71L396.472 461.542L388.239 465.772C387.318 463.277 386.544 460.795 385.917 458.326ZM388.639 466.8L396.979 462.503L400.489 469.335L391.775 473.819C390.601 471.483 389.547 469.135 388.639 466.8ZM392.282 474.806L400.996 470.322L404.505 477.155L396.165 481.451C394.804 479.343 393.496 477.128 392.282 474.806ZM396.792 482.372L405.025 478.142L408.535 484.974L401.489 488.59C399.848 486.642 398.273 484.56 396.792 482.372ZM402.237 489.444L409.042 485.948L412.551 492.78L407.908 495.169C405.933 493.407 404.038 491.499 402.237 489.444ZM415.727 501.013C413.339 499.519 411.03 497.838 408.802 495.943L413.058 493.754L416.568 500.586L415.727 501.013ZM416.835 501.681L417.075 501.561L417.262 501.934C417.115 501.854 416.982 501.774 416.835 501.681ZM414.033 493.247L420.865 489.738L424.374 496.57L417.542 500.079L414.033 493.247ZM419.01 502.908L418.062 501.054L424.895 497.544L428.404 504.376L425.562 505.844C423.32 505.017 421.145 504.043 419.01 502.908ZM426.989 506.338L428.898 505.35L429.845 507.205C428.884 506.938 427.937 506.658 426.989 506.338ZM431.286 507.565L429.885 504.843L436.717 501.334L440.6 508.873C437.451 508.726 434.342 508.299 431.286 507.565ZM441.855 508.913L437.691 500.827L444.523 497.317L450.208 508.379C447.419 508.793 444.63 508.966 441.855 508.913ZM457.747 506.685C455.626 507.325 453.49 507.819 451.369 508.192L445.511 496.81L452.343 493.301L458.414 505.097C458.094 505.59 457.881 506.124 457.747 506.685ZM460.576 503.055C460.029 503.335 459.549 503.696 459.148 504.123L453.317 492.794L460.149 489.284L465.847 500.346L460.576 503.055ZM472.092 497.13L466.834 499.839L461.137 488.777L467.969 485.268L473.8 496.597C473.213 496.677 472.639 496.85 472.092 497.13ZM468.943 484.761L475.775 481.251L481.633 492.633C480.098 494.155 478.457 495.596 476.696 496.957C476.162 496.73 475.588 496.61 475.014 496.557L468.943 484.761ZM475.708 509.887L478.043 508.686C480.245 507.552 481.353 505.137 480.926 502.815C482.767 501.414 484.502 499.933 486.13 498.371C490.306 525.713 491.774 535.414 492.948 543.38L475.708 509.887ZM493.322 474.552L492.375 472.698L494.296 471.71C493.989 472.671 493.669 473.618 493.322 474.552ZM494.323 489.338L498.74 491.006L497.232 494.995C496.791 494.275 496.364 493.541 495.964 492.794C495.364 491.673 494.83 490.525 494.323 489.338ZM498.9 579.449C498.513 578.768 497.992 578.168 497.365 577.688L498.98 573.444C498.806 575.446 498.78 577.461 498.9 579.449ZM530.912 528.795C516.447 540.845 512.671 544.021 504.024 551.307C503.383 551.84 502.396 551.467 502.276 550.639L502.249 550.506C500.888 541.205 500.154 536.228 497.072 515.945C496.618 512.97 500.021 510.928 502.409 512.769C506.172 515.652 510.389 517.987 514.979 519.735C519.583 521.483 524.293 522.524 529.017 522.857C532.033 523.098 533.22 526.874 530.912 528.795ZM526.415 514.371L527.723 510.901L534.595 513.503L534.101 514.811C531.566 514.918 528.99 514.771 526.415 514.371ZM584.981 499.132C584.301 499.853 583.62 500.573 582.966 501.307C575.093 510.061 568.688 520.149 564.151 531.211C563.711 532.265 563.297 533.319 562.897 534.387C562.083 536.562 561.349 538.763 560.682 541.005C560.469 541.699 560.282 542.393 560.082 543.087C559.054 542.446 558 541.832 556.892 541.285C549.34 537.469 541.147 536.268 533.354 537.362C539.265 532.438 547.151 525.873 558.427 516.492C560.148 515.051 561.95 513.557 563.845 511.982C563.871 511.955 563.911 511.929 563.951 511.902C566.273 510.141 568.475 508.192 570.57 506.084C572.131 504.523 573.612 502.855 575.04 501.107C580.071 494.929 584.221 487.696 587.25 479.69C588.104 477.435 588.851 475.153 589.492 472.871C592.04 476.768 594.896 480.531 598.072 484.12C598.685 484.801 599.299 485.481 599.926 486.148C594.549 489.991 589.532 494.342 584.981 499.132Z" fill="url(#paint2_linear_888_6414)"/>
<path d="M479.338 365.359C479.338 365.506 479.351 365.666 479.351 365.813C479.364 366 479.378 366.187 479.391 366.374C479.671 369.963 480.979 373.459 483.234 376.368C483.367 376.555 483.528 376.715 483.674 376.902C484.702 378.143 485.903 379.277 487.291 380.251C488.758 381.279 490.32 382.079 491.948 382.626C491.988 382.64 492.028 382.653 492.068 382.666C492.121 382.68 492.174 382.693 492.228 382.72C495.831 383.907 499.674 383.947 503.236 382.933C503.303 382.92 503.357 382.893 503.423 382.88C503.517 382.853 503.61 382.827 503.69 382.8C503.837 382.76 503.997 382.706 504.144 382.653C504.437 382.56 504.718 382.453 504.998 382.333C505.131 382.279 505.278 382.213 505.412 382.159C505.558 382.093 505.718 382.039 505.865 381.959C508.788 380.625 511.403 378.517 513.378 375.701C514.058 374.74 514.632 373.739 515.099 372.699C515.873 371.004 516.38 369.229 516.62 367.441C516.634 367.361 516.647 367.281 516.647 367.201C516.66 367.134 516.674 367.054 516.674 366.987C516.687 366.827 516.7 366.68 516.714 366.52C516.727 366.32 516.74 366.12 516.754 365.92C516.754 365.813 516.767 365.72 516.767 365.613C516.767 365.506 516.767 365.413 516.767 365.306C516.767 365.093 516.781 364.866 516.767 364.652C516.741 362.824 516.447 361.009 515.9 359.261C515.072 356.659 513.685 354.217 511.763 352.162C510.896 351.228 509.908 350.374 508.814 349.6C503.757 346.051 497.565 345.344 492.121 347.158C491.801 347.265 491.494 347.372 491.187 347.492C491.134 347.505 491.08 347.532 491.04 347.559C490.947 347.599 490.853 347.639 490.76 347.679C490.626 347.732 490.493 347.799 490.346 347.866C490.266 347.906 490.186 347.932 490.119 347.972C490.053 347.999 489.986 348.039 489.919 348.066C489.839 348.106 489.759 348.146 489.666 348.199C489.612 348.226 489.546 348.253 489.492 348.293C486.877 349.627 484.555 351.602 482.754 354.164C481.873 355.405 481.179 356.713 480.645 358.06C480.645 358.06 480.645 358.06 480.645 358.074C479.951 359.822 479.551 361.636 479.404 363.451C479.378 363.771 479.364 364.105 479.351 364.425C479.351 364.465 479.351 364.505 479.351 364.559C479.351 364.679 479.351 364.799 479.338 364.919C479.338 365.026 479.338 365.133 479.338 365.239C479.324 365.279 479.324 365.319 479.338 365.359Z" fill="url(#paint3_linear_888_6414)"/>
<path d="M354.372 330.585C354.372 330.585 406.6 373.312 395.778 385.001L395.191 385.482C381.513 393.635 350.569 333.681 350.569 333.681" fill="url(#paint4_linear_888_6414)"/>
<path d="M342.709 338.966C359.469 365.293 349.194 395.584 356.52 404.417C363.846 413.251 384.782 383.107 345.498 334.589" fill="url(#paint5_linear_888_6414)"/>
<path d="M346.512 336.069C366.969 361.329 364.326 393.889 372.733 399.039C381.126 404.19 383.902 389.819 375.322 371.631C366.742 353.443 350.342 332.974 350.342 332.974" fill="url(#paint6_linear_888_6414)"/>
<path d="M361.177 324.006C383.448 345.863 415.22 342.114 422.332 351.121C429.444 360.128 395.618 374.339 356.32 325.834" fill="url(#paint7_linear_888_6414)"/>
<path d="M357.547 327.116C378.004 352.376 410.403 356.553 413.698 365.84C416.994 375.128 402.356 374.847 386.357 362.678C370.344 350.508 353.731 330.212 353.731 330.212" fill="url(#paint8_linear_888_6414)"/>
<path d="M360.03 322.366L341.348 337.498L336.131 331.053C331.954 325.889 332.741 318.323 337.906 314.146C343.07 309.969 350.636 310.757 354.812 315.921L360.03 322.366Z" fill="url(#paint9_linear_888_6414)"/>
<path d="M361.377 325.689L344.31 339.513C343.363 340.273 341.975 340.127 341.215 339.193L339.667 337.284C338.906 336.337 339.053 334.949 339.987 334.189L357.054 320.364C358.001 319.604 359.389 319.751 360.15 320.685L361.698 322.593C362.471 323.54 362.325 324.928 361.377 325.689Z" fill="url(#paint10_linear_888_6414)"/>
<path d="M308.931 86.7257C308.168 92.4979 306.022 98.1985 302.42 103.303C298.437 108.956 293.189 113.178 287.322 115.849C286.749 116.111 286.153 116.374 285.58 116.588C285.008 116.827 284.435 117.018 283.863 117.232C283.553 117.352 283.243 117.447 282.957 117.542C282.647 117.638 282.337 117.733 282.026 117.829C271.484 120.834 259.701 119.236 250.041 112.438C246.869 110.196 244.149 107.572 241.907 104.662C237.375 98.8187 234.752 91.8062 234.203 84.6029C234.179 84.2213 234.155 83.8635 234.132 83.4818C234.108 83.1718 234.108 82.8855 234.108 82.5755C234.108 82.2654 234.108 81.9791 234.108 81.6691C234.108 81.359 234.108 81.0251 234.132 80.6911C234.155 80.0471 234.179 79.3793 234.227 78.7353C234.513 75.086 235.348 71.4365 236.708 67.9303C236.708 67.9303 236.708 67.9303 236.708 67.9065C237.781 65.1874 239.188 62.5636 240.929 60.083C244.555 54.931 249.23 50.9716 254.454 48.3001C254.74 48.1332 255.026 47.9901 255.312 47.8708C255.598 47.7277 255.885 47.5846 256.195 47.4653C256.481 47.346 256.743 47.2268 257.03 47.1075C257.316 46.9883 257.602 46.869 257.912 46.7498C258.532 46.5113 259.152 46.2727 259.796 46.0819C270.721 42.4564 283.171 43.8637 293.308 50.9954C295.503 52.522 297.459 54.2631 299.224 56.1236C303.088 60.2738 305.878 65.1635 307.524 70.3632C308.621 73.8695 309.218 77.5189 309.265 81.1921C309.265 81.8361 309.265 82.4801 309.242 83.1241C309.218 83.7204 309.194 84.3167 309.122 84.913C309.098 85.2231 309.075 85.5331 309.027 85.8432C309.027 86.1055 308.979 86.4156 308.931 86.7257Z" fill="url(#paint11_linear_888_6414)"/>
<path d="M308.931 86.7258C301.823 82.5517 297.267 82.6232 292.831 82.6948C288.037 82.7902 283.099 82.8856 275.848 77.7813C271.889 74.9906 269.623 72.3192 268.12 69.7193C266.88 67.5965 266.188 65.4975 265.496 63.4701C263.946 58.9144 262.348 54.1917 254.453 48.2525C254.739 48.1094 255.025 47.9663 255.312 47.8232C255.598 47.6801 255.884 47.537 256.194 47.4178C256.48 47.2985 256.743 47.1792 257.029 47.0599C257.315 46.9407 257.601 46.8214 257.911 46.7021C265.401 52.7844 267.142 57.8649 268.669 62.4206C269.384 64.5196 270.052 66.4993 271.245 68.4552C272.557 70.6018 274.489 72.7247 277.78 75.0622C284.125 79.5225 288.132 79.451 292.759 79.3794C297.172 79.3079 302.062 79.2124 309.241 83.0764C309.217 83.6727 309.193 84.269 309.122 84.8653C309.098 85.1754 309.074 85.4855 309.026 85.7956C309.026 86.1057 308.979 86.4157 308.931 86.7258Z" fill="url(#paint12_linear_888_6414)"/>
<path d="M285.604 116.612C285.031 116.85 284.459 117.041 283.886 117.256C283.576 117.351 283.266 117.47 282.98 117.566C282.67 117.661 282.36 117.756 282.05 117.852C277.327 113.081 275.944 108.955 274.656 105.186C273.177 100.798 271.889 97.0052 265.52 92.5449C259.176 88.0846 255.168 88.1561 250.541 88.2277C249.635 88.2515 248.681 88.2515 247.703 88.2277C244.03 88.1561 239.808 87.5837 234.202 84.6022C234.179 84.2206 234.155 83.8628 234.131 83.4811C234.131 83.1711 234.107 82.861 234.107 82.5748C234.107 82.2647 234.083 81.9784 234.083 81.6684C234.083 81.3583 234.083 81.0244 234.107 80.6904C241.048 84.8407 245.58 84.9361 249.873 84.8884C250.088 84.8884 250.279 84.8884 250.493 84.8884C255.264 84.793 260.225 84.7214 267.452 89.8019C274.703 94.9062 276.301 99.5812 277.828 104.113C279.14 107.929 280.475 111.889 285.604 116.612Z" fill="url(#paint13_linear_888_6414)"/>
<path d="M309.146 84.8672C302.468 81.1463 298.103 81.2178 293.833 81.2894C289.039 81.3848 284.102 81.4802 276.851 76.3759C273.273 73.8476 271.079 71.4385 269.576 69.101C268.049 66.692 267.262 64.3545 266.475 62.0647C264.972 57.6521 263.422 53.0964 256.195 47.4196C256.481 47.3003 256.744 47.181 257.03 47.0618C257.316 46.9425 257.602 46.8232 257.912 46.704C258.532 46.4655 259.153 46.2269 259.797 46.0361C266.547 51.7845 268.193 56.6503 269.671 61.0152C270.482 63.4242 271.246 65.6663 272.82 67.9322C274.108 69.7689 275.944 71.6532 278.807 73.6806C285.175 78.1409 289.158 78.0694 293.786 77.9978C297.984 77.9262 302.635 77.8309 309.266 81.194C309.289 81.838 309.266 82.482 309.242 83.126C309.242 83.6746 309.194 84.2709 309.146 84.8672Z" fill="white"/>
<path d="M287.345 115.874C286.773 116.136 286.177 116.375 285.604 116.613C285.032 116.852 284.459 117.043 283.887 117.257C278.496 112.129 276.994 107.74 275.658 103.757C274.179 99.3683 272.891 95.5758 266.523 91.1154C260.178 86.6551 256.171 86.7267 251.544 86.7982C250.59 86.8221 249.612 86.846 248.586 86.8221C244.698 86.7267 240.214 86.0589 234.108 82.5765C234.108 82.2664 234.108 81.9802 234.108 81.6701C234.108 81.36 234.108 81.0261 234.132 80.6921C234.155 80.0481 234.179 79.3803 234.227 78.7363C241.717 83.4352 246.439 83.5544 250.947 83.4829C251.138 83.4829 251.329 83.4829 251.496 83.4829C256.266 83.3874 261.228 83.292 268.479 88.3964C275.73 93.5007 277.304 98.1757 278.854 102.708C280.19 106.691 281.597 110.841 287.345 115.874Z" fill="white"/>
<path opacity="0.74" d="M302.444 103.303C298.46 108.956 293.213 113.178 287.345 115.849C286.773 116.112 286.177 116.35 285.604 116.589C285.032 116.827 284.459 117.018 283.887 117.233C283.577 117.328 283.267 117.447 282.98 117.543C282.67 117.638 282.36 117.734 282.05 117.829C271.508 120.834 259.749 119.236 250.065 112.438C246.892 110.196 244.173 107.573 241.931 104.663C242.265 102.373 242.79 100.107 243.482 97.841C244.555 94.4063 245.962 91.1863 247.703 88.2287C247.99 87.7516 248.276 87.2746 248.562 86.8214C248.967 86.1535 249.421 85.5095 249.874 84.8894C250.208 84.4124 250.566 83.9353 250.923 83.4821C255.503 77.5191 261.442 72.8442 268.144 69.7911C268.622 69.5764 269.122 69.3617 269.599 69.1471C270.148 68.9085 270.697 68.6939 271.269 68.5031C271.794 68.3123 272.295 68.1214 272.819 67.9545C281.573 65.0445 291.305 64.7345 300.798 67.6682C303.159 68.4077 305.401 69.2902 307.548 70.3635C308.645 73.8698 309.241 77.5192 309.289 81.1924C309.313 81.8364 309.289 82.4804 309.265 83.1244C309.241 83.7207 309.218 84.317 309.146 84.9133C309.122 85.2233 309.098 85.5334 309.051 85.8435C309.027 86.1535 308.979 86.4636 308.931 86.7737C308.168 92.5221 306.021 98.1988 302.444 103.303Z" fill="url(#paint14_linear_888_6414)"/>
<path opacity="0.28" d="M299.224 56.0764C280.142 44.2458 250.828 44.9374 236.708 67.8831C237.781 65.1639 239.189 62.5402 240.93 60.0596C244.555 54.9076 249.23 50.9481 254.454 48.2767C254.74 48.1097 255.026 47.9666 255.313 47.8474C255.599 47.7043 255.885 47.5611 256.195 47.4419C256.481 47.3226 256.744 47.2034 257.03 47.0841C257.316 46.9648 257.602 46.8456 257.912 46.7263C258.533 46.4878 259.153 46.2493 259.797 46.0585C270.721 42.433 283.172 43.8402 293.309 50.972C295.503 52.4747 297.459 54.192 299.224 56.0764Z" fill="white"/>
<path d="M374.975 646.355L364.18 649.397L346.886 654.267L343.95 643.526V643.512L318.797 551.453L317.73 548.277L312.913 533.892L263.5 386.575L237.533 309.154C234.784 299.373 239.641 289.258 248.582 285.122C249.556 284.655 250.583 284.281 251.651 283.974L263.073 280.758C273.922 277.703 285.197 284.014 288.253 294.863L333.022 490.338L341.175 525.926L344.564 540.711L345.312 543.98L371.879 635.639L374.975 646.355Z" fill="url(#paint15_linear_888_6414)"/>
<path opacity="0.28" d="M333.008 490.338C307.548 428.702 288.119 318.188 284.21 301.655C280.794 287.19 265.048 279.784 248.568 285.122C249.542 284.655 250.57 284.281 251.637 283.974L263.06 280.758C273.908 277.703 285.184 284.014 288.24 294.863L333.008 490.338Z" fill="white"/>
<path d="M278.712 287.737C280.06 292.301 273.015 298.399 262.98 301.348C252.945 304.31 243.725 303.016 242.377 298.452C241.029 293.889 248.075 287.791 258.109 284.842C268.144 281.879 277.365 283.173 278.712 287.737Z" fill="url(#paint16_linear_888_6414)"/>
<path d="M383.569 647.195C383.569 652.239 380.246 656.856 375.162 658.297L367.289 660.512L352.958 664.542C346.819 666.263 340.454 662.7 338.72 656.575C338.426 655.521 338.279 654.467 338.279 653.44C338.279 649.383 340.441 645.593 343.937 643.525C344.778 643.018 345.699 642.631 346.699 642.337L361.044 638.308L368.904 636.092C369.891 635.812 370.878 635.665 371.853 635.665C376.963 635.585 381.687 638.935 383.128 644.072C383.435 645.113 383.569 646.167 383.569 647.195Z" fill="url(#paint17_linear_888_6414)"/>
<path d="M344.551 540.711L332.741 544.047L317.743 548.263L312.912 533.879L328.071 529.622L341.161 525.926L344.551 540.711Z" fill="url(#paint18_linear_888_6414)"/>
<path opacity="0.74" d="M367.289 660.514L352.958 664.544C346.819 666.265 340.454 662.702 338.72 656.578C338.426 655.523 338.279 654.469 338.279 653.442C338.279 649.385 340.441 645.596 343.937 643.527V643.514L318.784 551.454L317.716 548.279L312.899 533.894L263.487 386.577C274.309 402.203 286.251 420.297 298.181 448.106C307.882 470.71 318.21 499.68 328.044 529.637C329.619 534.428 331.18 539.245 332.715 544.062C343.523 577.849 353.491 611.796 361.031 638.323C362.125 642.18 363.179 645.889 364.166 649.425C365.301 653.335 366.328 657.058 367.289 660.514Z" fill="url(#paint19_linear_888_6414)"/>
<path d="M131.712 508.883C118.188 518.042 100.895 529.396 87.0369 534.882C81.8849 536.933 77.2099 538.15 73.3697 538.15C69.1002 538.15 65.8802 536.599 64.2583 532.926C61.1814 525.914 54.6459 523.242 46.417 521.167C36.1606 518.591 23.2805 516.993 11.1876 509.122C-10.5654 494.954 -0.762262 418.103 42.0521 396.349C74.0137 380.154 109.649 378.365 134.335 407.488C142.731 417.339 149.839 430.768 155.111 448.371L141.801 469.36C141.849 469.36 155.922 492.497 131.712 508.883Z" fill="url(#paint20_linear_888_6414)"/>
<path d="M73.3934 538.124C69.1239 538.124 65.9039 536.574 64.282 532.9C61.2051 525.888 54.6696 523.217 46.4407 521.141C55.6714 514.487 63.3279 499.412 72.3439 464.898L109.386 536.12C108.909 546.782 76.5181 524.838 73.3934 538.124Z" fill="url(#paint21_linear_888_6414)"/>
<path d="M87.037 534.856C91.7835 507.641 67.9792 511.171 68.5278 469.812C69.0525 429.288 108.981 426.711 134.359 407.463C142.755 417.338 149.863 430.742 155.158 448.369L141.849 469.359C141.849 469.359 155.922 492.471 131.712 508.882C118.188 518.041 100.895 529.394 87.037 534.856Z" fill="url(#paint22_linear_888_6414)"/>
<path d="M117.305 549.286C114.252 538.195 120.501 501.033 120.907 498.744L120.931 498.624C120.931 498.624 80.907 503.657 71.6524 477.587C62.4217 451.517 90.734 425.256 132.594 427.068C168.659 428.619 174.121 442.023 177.198 493.568C177.698 501.82 178.128 511.075 178.605 521.403C181.467 553.293 120.478 560.759 117.305 549.286Z" fill="url(#paint23_linear_888_6414)"/>
<path d="M117.305 549.288C114.252 538.197 120.501 501.035 120.906 498.746L120.93 498.626C135.814 492.759 158.163 488.728 177.197 493.57C177.698 501.822 178.127 511.077 178.604 521.405C181.467 553.295 120.477 560.761 117.305 549.288Z" fill="url(#paint24_linear_888_6414)"/>
<path d="M128.706 506.331C107.621 526.677 69.6011 526.367 66.6196 541.87C63.6381 557.374 78.9988 582.92 98.1519 580.32C117.305 577.72 187.001 547.857 185.999 520.451C184.997 493.045 176.697 472.199 128.706 506.331Z" fill="url(#paint25_linear_888_6414)"/>
<g opacity="0.62">
<g opacity="0.62">
<g opacity="0.62">
<g opacity="0.62">
<path opacity="0.62" d="M276.064 138.793L496.099 222.275" stroke="#96A3BC" strokeWidth="0.8007" stroke-miterlimit="10" strokeLinecap="round" strokeLinejoin="round"/>
<path opacity="0.62" d="M270.149 154.368L490.183 237.85" stroke="#96A3BC" strokeWidth="0.8007" stroke-miterlimit="10" strokeLinecap="round" strokeLinejoin="round"/>
<path opacity="0.62" d="M264.233 169.944L484.268 253.426" stroke="#96A3BC" strokeWidth="0.8007" stroke-miterlimit="10" strokeLinecap="round" strokeLinejoin="round"/>
<path opacity="0.62" d="M258.318 185.543L478.352 269.025" stroke="#96A3BC" strokeWidth="0.8007" stroke-miterlimit="10" strokeLinecap="round" strokeLinejoin="round"/>
<path opacity="0.62" d="M252.403 201.118L472.438 284.6" stroke="#96A3BC" strokeWidth="0.8007" stroke-miterlimit="10" strokeLinecap="round" strokeLinejoin="round"/>
<path opacity="0.62" d="M246.487 216.695L466.522 300.177" stroke="#96A3BC" strokeWidth="0.8007" stroke-miterlimit="10" strokeLinecap="round" strokeLinejoin="round"/>
<path opacity="0.62" d="M240.572 232.294L460.607 315.776" stroke="#96A3BC" strokeWidth="0.8007" stroke-miterlimit="10" strokeLinecap="round" strokeLinejoin="round"/>
<path opacity="0.62" d="M234.68 247.868L454.691 331.35" stroke="#96A3BC" strokeWidth="0.8007" stroke-miterlimit="10" strokeLinecap="round" strokeLinejoin="round"/>
<path opacity="0.62" d="M228.765 263.443L448.776 346.925" stroke="#96A3BC" strokeWidth="0.8007" stroke-miterlimit="10" strokeLinecap="round" strokeLinejoin="round"/>
<path opacity="0.62" d="M222.85 279.043L442.861 362.525" stroke="#96A3BC" strokeWidth="0.8007" stroke-miterlimit="10" strokeLinecap="round" strokeLinejoin="round"/>
<path opacity="0.62" d="M216.934 294.618L436.969 378.1" stroke="#96A3BC" strokeWidth="0.8007" stroke-miterlimit="10" strokeLinecap="round" strokeLinejoin="round"/>
<path opacity="0.62" d="M211.02 310.218L431.054 393.7" stroke="#96A3BC" strokeWidth="0.8007" stroke-miterlimit="10" strokeLinecap="round" strokeLinejoin="round"/>
</g>
<path opacity="0.62" d="M205.104 325.791L425.139 409.273" stroke="#96A3BC" strokeWidth="0.8007" stroke-miterlimit="10" strokeLinecap="round" strokeLinejoin="round"/>
</g>
<g opacity="0.62">
<g opacity="0.62">
<path opacity="0.62" d="M470.266 193.581L386.784 413.616" stroke="#96A3BC" strokeWidth="0.8007" stroke-miterlimit="10" strokeLinecap="round" strokeLinejoin="round"/>
<path opacity="0.62" d="M454.667 187.665L371.185 407.7" stroke="#96A3BC" strokeWidth="0.8007" stroke-miterlimit="10" strokeLinecap="round" strokeLinejoin="round"/>
<path opacity="0.62" d="M439.092 181.749L355.61 401.784" stroke="#96A3BC" strokeWidth="0.8007" stroke-miterlimit="10" strokeLinecap="round" strokeLinejoin="round"/>
<path opacity="0.62" d="M423.516 175.836L340.034 395.871" stroke="#96A3BC" strokeWidth="0.8007" stroke-miterlimit="10" strokeLinecap="round" strokeLinejoin="round"/>
<path opacity="0.62" d="M407.917 169.921L324.435 389.956" stroke="#96A3BC" strokeWidth="0.8007" stroke-miterlimit="10" strokeLinecap="round" strokeLinejoin="round"/>
<path opacity="0.62" d="M392.342 164.004L308.86 384.039" stroke="#96A3BC" strokeWidth="0.8007" stroke-miterlimit="10" strokeLinecap="round" strokeLinejoin="round"/>
<path opacity="0.62" d="M376.766 158.111L293.26 378.122" stroke="#96A3BC" strokeWidth="0.8007" stroke-miterlimit="10" strokeLinecap="round" strokeLinejoin="round"/>
<path opacity="0.62" d="M361.167 152.196L277.685 372.207" stroke="#96A3BC" strokeWidth="0.8007" stroke-miterlimit="10" strokeLinecap="round" strokeLinejoin="round"/>
<path opacity="0.62" d="M345.592 146.282L262.11 366.293" stroke="#96A3BC" strokeWidth="0.8007" stroke-miterlimit="10" strokeLinecap="round" strokeLinejoin="round"/>
<path opacity="0.62" d="M329.993 140.367L246.511 360.402" stroke="#96A3BC" strokeWidth="0.8007" stroke-miterlimit="10" strokeLinecap="round" strokeLinejoin="round"/>
<path opacity="0.62" d="M314.417 134.452L230.935 354.487" stroke="#96A3BC" strokeWidth="0.8007" stroke-miterlimit="10" strokeLinecap="round" strokeLinejoin="round"/>
</g>
</g>
</g>
</g>
<path d="M455.025 218.554C445.222 188.81 424.089 166.461 395.538 155.632C366.987 144.803 336.361 147.498 309.289 163.265C283.434 178.315 262.539 204.147 250.446 236.037C244.34 252.113 240.929 268.524 240.261 284.48C240.071 288.989 240.094 293.473 240.333 297.909C240.667 303.872 241.382 309.74 242.527 315.464C242.551 315.536 242.551 315.607 242.575 315.679C243.314 320.569 244.03 325.22 244.722 329.704C258.818 421.892 260.178 431.218 263.875 456.573C264.567 461.319 265.354 466.638 266.308 473.126L215.575 606.84L230.911 612.66L281.645 478.946L294.239 468.356C318.257 448.129 323.529 443.693 392.938 385.947C396.397 383.061 400.022 380.056 403.815 376.883C403.886 376.836 403.958 376.788 404.005 376.74C408.657 373.21 413.093 369.298 417.291 365.053C420.416 361.904 423.397 358.565 426.259 355.059C436.349 342.679 444.673 328.13 450.779 312.053C462.872 280.163 464.375 246.961 455.025 218.554ZM283.648 455.786C282.36 456.859 280.38 456.12 280.142 454.45L280.094 454.164C277.351 435.488 275.896 425.494 269.695 384.802C268.788 378.815 275.61 374.736 280.428 378.41C287.965 384.182 296.433 388.905 305.664 392.411C314.894 395.917 324.364 397.992 333.833 398.684C339.867 399.113 342.276 406.698 337.625 410.586C308.597 434.772 301.012 441.164 283.648 455.786ZM400.523 358.684C398.281 360.688 395.943 362.596 393.582 364.361L393.439 364.17C392.533 364.909 391.674 365.649 390.791 366.364C389.074 367.557 387.333 368.702 385.568 369.751C380.583 372.804 375.407 375.309 370.112 377.289C351.483 384.253 331.233 384.611 311.46 377.098C291.686 369.584 276.755 355.893 267.453 338.338C264.805 333.329 262.587 328.01 260.893 322.429C260.273 320.449 259.725 318.446 259.224 316.418C259.057 315.297 258.866 314.176 258.699 313.031L258.461 313.079C257.864 310.193 257.387 307.235 257.029 304.23C256.505 299.77 256.242 295.214 256.266 290.539C256.314 275.035 259.367 258.553 265.712 241.809C288.371 182.084 340.488 152.269 389.647 170.921C438.805 189.573 458.054 246.46 435.395 306.186C429.05 322.906 420.392 337.289 410.135 348.905C407.106 352.435 403.886 355.679 400.523 358.684Z" fill="url(#paint26_linear_888_6414)"/>
<path d="M215.265 656.189L198.377 649.773C191.985 647.34 188.86 640.089 191.484 633.769L243.028 510.311C245.557 504.276 252.402 501.342 258.508 503.656L267.167 506.948C273.273 509.261 276.445 516.011 274.322 522.189L231.007 648.772C228.789 655.259 221.657 658.622 215.265 656.189Z" fill="url(#paint27_linear_888_6414)"/>
<path d="M267.477 338.34L244.698 329.705C244.006 325.221 243.291 320.57 242.551 315.68C242.528 315.609 242.528 315.537 242.504 315.466L260.918 322.454C262.611 328.012 264.829 333.331 267.477 338.34Z" fill="url(#paint28_linear_888_6414)"/>
<path d="M404.005 376.716C403.933 376.763 403.862 376.811 403.814 376.859C400.021 380.007 396.396 383.037 392.937 385.923L370.159 377.288C375.454 375.309 380.63 372.78 385.615 369.751L404.005 376.716Z" fill="url(#paint29_linear_888_6414)"/>
<path d="M256.314 290.562C256.29 295.237 256.553 299.793 257.077 304.253L240.309 297.885C240.047 293.448 240.023 288.964 240.238 284.456L256.314 290.562Z" fill="white"/>
<path d="M426.259 355.035C423.397 358.541 420.416 361.88 417.291 365.029L400.523 358.66C403.862 355.679 407.106 352.435 410.183 348.929L426.259 355.035Z" fill="white"/>
<path d="M333.976 580.94L320.213 588.024L208.061 370.016L221.824 362.956L333.976 580.94Z" fill="url(#paint30_linear_888_6414)"/>
<path d="M37.0183 213.332L37.8293 214.93L45.0803 229.027L53.1422 244.697L61.2281 260.368L69.2901 276.063L77.3521 291.734L85.414 307.404L93.476 323.075L101.538 338.77L109.6 354.44L116.875 368.537L117.686 370.111" stroke="#96A3BC" strokeWidth="0.9315" stroke-miterlimit="10" strokeLinecap="round" strokeLinejoin="round"/>
<path d="M45.4622 191.219L52.6893 205.268L60.7751 220.962L68.8371 236.633L76.8991 252.304L84.9611 267.975L93.0231 283.669L101.085 299.34L109.147 315.011L117.233 330.681L125.295 346.376L133.357 362.047L140.584 376.12" stroke="#96A3BC" strokeWidth="0.9315" stroke-miterlimit="10" strokeLinecap="round" strokeLinejoin="round"/>
<path d="M56.0044 173.141L68.3836 197.207L76.4456 212.878L84.5076 228.573L92.5934 244.243L100.655 259.914L108.717 275.585L116.779 291.28L124.841 306.95L132.903 322.621L140.965 338.292L149.051 353.987L161.43 378.053" stroke="#96A3BC" strokeWidth="0.9315" stroke-miterlimit="10" strokeLinecap="round" strokeLinejoin="round"/>
<path d="M68.4548 158.804L84.0541 189.12L92.116 204.814L100.202 220.485L108.264 236.18L116.326 251.85L124.388 267.521L132.45 283.192L140.512 298.887L148.598 314.557L156.66 330.228L164.722 345.899L180.321 376.239" stroke="#96A3BC" strokeWidth="0.9315" stroke-miterlimit="10" strokeLinecap="round" strokeLinejoin="round"/>
<path d="M82.3849 147.333L99.7253 181.06L107.811 196.754L115.873 212.425L123.935 228.12L131.997 243.791L140.059 259.461L148.121 275.132L156.207 290.827L164.269 306.497L172.331 322.168L180.393 337.839L197.757 371.59" stroke="#96A3BC" strokeWidth="0.9315" stroke-miterlimit="10" strokeLinecap="round" strokeLinejoin="round"/>
<path d="M97.5072 138.218L115.42 172.994L123.482 188.689L131.544 204.359L139.606 220.03L147.668 235.725L155.754 251.396L163.816 267.066L171.878 282.737L179.94 298.432L188.002 314.102L196.064 329.773L213.977 364.573" stroke="#96A3BC" strokeWidth="0.9315" stroke-miterlimit="10" strokeLinecap="round" strokeLinejoin="round"/>
<path d="M113.726 131.209L131.09 164.936L139.152 180.63L147.214 196.301L155.3 211.972L163.362 227.666L171.424 243.337L179.486 259.008L187.548 274.679L195.61 290.373L203.672 306.044L211.758 321.715L229.098 355.442" stroke="#96A3BC" strokeWidth="0.9315" stroke-miterlimit="10" strokeLinecap="round" strokeLinejoin="round"/>
<path d="M131.162 126.532L146.761 156.872L154.847 172.567L162.909 188.237L170.971 203.908L179.033 219.579L187.095 235.273L195.157 250.944L203.219 266.615L211.305 282.286L219.367 297.98L227.429 313.651L243.028 343.991" stroke="#96A3BC" strokeWidth="0.9315" stroke-miterlimit="10" strokeLinecap="round" strokeLinejoin="round"/>
<path d="M150.052 124.744L162.432 148.811L170.518 164.482L178.58 180.176L186.641 195.847L194.703 211.518L202.765 227.189L210.851 242.883L218.913 258.554L226.975 274.225L235.037 289.895L243.099 305.59L255.478 329.657" stroke="#96A3BC" strokeWidth="0.9315" stroke-miterlimit="10" strokeLinecap="round" strokeLinejoin="round"/>
<path d="M170.875 126.677L178.126 140.749L186.188 156.42L194.25 172.115L202.312 187.786L210.374 203.456L218.46 219.127L226.522 234.822L234.584 250.493L242.646 266.163L250.708 281.834L258.77 297.529L266.021 311.578" stroke="#96A3BC" strokeWidth="0.9315" stroke-miterlimit="10" strokeLinecap="round" strokeLinejoin="round"/>
<path d="M193.798 132.663L194.609 134.261L201.86 148.358L209.922 164.028L218.007 179.723L226.069 195.394L234.131 211.065L242.193 226.735L250.255 242.43L258.317 258.101L266.379 273.772L273.654 287.892L274.465 289.442" stroke="#96A3BC" strokeWidth="0.9315" stroke-miterlimit="10" strokeLinecap="round" strokeLinejoin="round"/>
<path d="M193.797 132.663L192.533 133.331L178.127 140.749L162.432 148.811L146.761 156.873L131.09 164.935L115.42 172.997L99.7251 181.059L84.0543 189.121L68.3836 197.207L52.6889 205.269L38.3062 212.663L37.0182 213.331" stroke="#96A3BC" strokeWidth="0.9315" stroke-miterlimit="10" strokeLinecap="round" strokeLinejoin="round"/>
<path d="M211.328 143.492L201.859 148.358L186.188 156.42L170.518 164.482L154.847 172.568L139.152 180.63L123.482 188.692L107.811 196.754L92.1162 204.816L76.4454 212.878L60.7746 220.963L45.08 229.025L35.6346 233.891" stroke="#96A3BC" strokeWidth="0.9315" stroke-miterlimit="10" strokeLinecap="round" strokeLinejoin="round"/>
<path d="M226.641 155.439L209.921 164.026L194.25 172.112L178.58 180.174L162.909 188.236L147.214 196.298L131.543 204.36L115.873 212.422L100.202 220.484L84.5072 228.57L68.8365 236.632L53.1418 244.694L36.4454 253.28" stroke="#96A3BC" strokeWidth="0.9315" stroke-miterlimit="10" strokeLinecap="round" strokeLinejoin="round"/>
<path d="M239.426 168.702L218.007 179.722L202.312 187.784L186.641 195.846L170.971 203.908L155.3 211.97L139.605 220.032L123.934 228.117L108.264 236.179L92.593 244.241L76.8983 252.303L61.2276 260.365L39.8085 271.385" stroke="#96A3BC" strokeWidth="0.9315" stroke-miterlimit="10" strokeLinecap="round" strokeLinejoin="round"/>
<path d="M250.135 183.014L226.069 195.393L210.374 203.455L194.703 211.517L179.033 219.579L163.362 227.665L147.667 235.727L131.996 243.789L116.326 251.851L100.655 259.913L84.9603 267.975L69.2896 276.06L45.2229 288.416" stroke="#96A3BC" strokeWidth="0.9315" stroke-miterlimit="10" strokeLinecap="round" strokeLinejoin="round"/>
<path d="M259.033 198.256L234.131 211.064L218.461 219.126L202.766 227.188L187.095 235.274L171.424 243.336L155.754 251.398L140.059 259.46L124.388 267.522L108.717 275.584L93.0228 283.67L77.3521 291.732L52.4506 304.54" stroke="#96A3BC" strokeWidth="0.9315" stroke-miterlimit="10" strokeLinecap="round" strokeLinejoin="round"/>
<path d="M266.259 214.355L242.193 226.735L226.522 234.82L210.851 242.882L195.157 250.944L179.486 259.006L163.815 267.068L148.12 275.13L132.45 283.192L116.779 291.278L101.084 299.34L85.4135 307.402L61.3707 319.781" stroke="#96A3BC" strokeWidth="0.9315" stroke-miterlimit="10" strokeLinecap="round" strokeLinejoin="round"/>
<path d="M271.674 231.409L250.255 242.429L234.584 250.491L218.913 258.553L203.219 266.615L187.548 274.677L171.877 282.739L156.206 290.825L140.512 298.887L124.841 306.949L109.146 315.01L93.4756 323.072L72.0565 334.092" stroke="#96A3BC" strokeWidth="0.9315" stroke-miterlimit="10" strokeLinecap="round" strokeLinejoin="round"/>
<path d="M275.037 249.491L258.317 258.102L242.646 266.164L226.975 274.226L211.305 282.288L195.61 290.374L179.939 298.435L164.269 306.497L148.598 314.559L132.903 322.621L117.232 330.683L101.538 338.769L84.8414 347.356" stroke="#96A3BC" strokeWidth="0.9315" stroke-miterlimit="10" strokeLinecap="round" strokeLinejoin="round"/>
<path d="M275.848 268.905L266.379 273.771L250.708 281.833L235.037 289.895L219.367 297.981L203.672 306.043L188.001 314.105L172.33 322.167L156.66 330.229L140.965 338.291L125.294 346.377L109.6 354.439L100.154 359.304" stroke="#96A3BC" strokeWidth="0.9315" stroke-miterlimit="10" strokeLinecap="round" strokeLinejoin="round"/>
<path d="M274.464 289.441L273.2 290.109L258.77 297.527L243.099 305.589L227.428 313.651L211.758 321.713L196.063 329.775L180.392 337.837L164.721 345.899L149.051 353.985L133.356 362.047L118.949 369.465L117.685 370.109" stroke="#96A3BC" strokeWidth="0.9315" stroke-miterlimit="10" strokeLinecap="round" strokeLinejoin="round"/>
<path d="M217.268 370.992C184.663 387.76 150.507 389.883 118.497 377.074C88.5629 365.124 62.8265 340.509 46.0109 307.832C29.1952 275.131 24.1386 239.901 31.8189 208.584C40.024 175.119 61.5862 148.548 94.1919 131.78C126.798 115.012 160.954 112.889 192.963 125.698C222.897 137.648 248.634 162.263 265.449 194.94C282.265 227.641 287.322 262.871 279.641 294.188C271.46 327.677 249.874 354.224 217.268 370.992ZM100.823 144.636C43.7927 173.974 26.5238 238.375 58.8671 301.249C91.2104 364.123 153.631 387.521 210.661 358.183C267.691 328.845 284.96 264.445 252.617 201.571C220.274 138.697 157.853 115.275 100.823 144.636Z" fill="url(#paint31_linear_888_6414)"/>
<path d="M231.507 370.229L208.395 382.107C202.98 384.898 196.35 382.751 193.583 377.361L191.722 373.735C188.932 368.321 191.078 361.69 196.469 358.923L219.581 347.045C224.996 344.254 231.627 346.401 234.393 351.791L236.254 355.417C239.021 360.831 236.898 367.462 231.507 370.229Z" fill="url(#paint32_linear_888_6414)"/>
<path d="M433.893 506.593C434.059 519.044 431.269 531.733 425.258 543.635C418.58 556.825 408.8 567.368 397.208 574.834C396.087 575.573 394.918 576.265 393.75 576.957C392.629 577.601 391.484 578.221 390.315 578.817C389.719 579.151 389.075 579.461 388.454 579.747C387.858 580.033 387.214 580.344 386.594 580.63C365.223 590.242 339.844 590.481 317.304 579.079C309.91 575.335 303.351 570.612 297.698 565.126C286.344 554.154 278.616 540.153 275.205 525.078C275.014 524.291 274.871 523.528 274.704 522.741C274.585 522.121 274.466 521.453 274.346 520.833C274.251 520.189 274.156 519.569 274.06 518.925C273.965 518.257 273.893 517.565 273.798 516.85C273.631 515.466 273.512 514.083 273.392 512.675C272.868 504.852 273.488 496.909 275.324 489.062C275.324 489.038 275.324 489.038 275.348 489.038C276.779 482.98 278.95 476.969 281.884 471.173C287.966 459.175 296.624 449.372 306.881 442.074C307.453 441.644 308.026 441.263 308.574 440.881C309.147 440.499 309.719 440.118 310.315 439.76C310.864 439.402 311.413 439.068 311.937 438.734C312.51 438.376 313.082 438.043 313.678 437.709C314.895 437.017 316.159 436.349 317.447 435.681C339.439 424.638 366.201 423.779 389.838 435.753C394.918 438.329 399.617 441.358 403.911 444.793C413.356 452.354 420.774 461.847 425.854 472.366C429.265 479.426 431.65 486.963 432.891 494.715C433.105 496.074 433.296 497.41 433.439 498.794C433.582 500.082 433.702 501.37 433.773 502.634C433.797 503.302 433.845 503.969 433.869 504.637C433.893 505.257 433.893 505.925 433.893 506.593Z" fill="url(#paint33_linear_888_6414)"/>
<path d="M433.891 506.592C417.553 499.938 407.94 501.512 398.638 503.038C388.549 504.708 378.101 506.425 361.214 497.886C351.96 493.211 346.354 488.25 342.395 483.241C339.127 479.115 337.004 474.941 334.905 470.814C330.207 461.631 325.388 452.186 306.879 442.025C307.428 441.62 308 441.214 308.573 440.833C309.145 440.451 309.718 440.069 310.29 439.711C310.839 439.354 311.387 439.02 311.912 438.686C312.485 438.352 313.057 437.994 313.653 437.66C331.375 448.203 336.599 458.435 341.25 467.571C343.421 471.792 345.424 475.752 348.573 479.544C351.983 483.671 356.73 487.606 364.434 491.494C379.246 498.984 387.69 497.576 397.469 495.978C406.771 494.452 417.076 492.758 433.438 498.721C433.581 500.009 433.677 501.273 433.748 502.561C433.796 503.229 433.82 503.897 433.844 504.565C433.891 505.257 433.891 505.925 433.891 506.592Z" fill="url(#paint34_linear_888_6414)"/>
<path d="M393.773 576.956C392.652 577.6 391.507 578.22 390.338 578.84C389.742 579.15 389.098 579.46 388.502 579.746C387.881 580.056 387.261 580.343 386.641 580.629C375.216 571.994 370.97 563.67 367.106 556.109C362.622 547.284 358.734 539.675 343.922 532.185C329.11 524.696 320.667 526.079 310.887 527.701C308.955 528.011 306.975 528.345 304.9 528.608C297.101 529.609 288.013 529.705 275.228 525.078C275.038 524.29 274.895 523.527 274.728 522.74C274.608 522.096 274.489 521.452 274.394 520.832C274.298 520.188 274.179 519.568 274.084 518.924C273.988 518.256 273.893 517.564 273.821 516.849C289.778 523.479 299.367 522.311 308.454 520.856C308.884 520.784 309.313 520.713 309.742 520.641C319.808 518.971 330.255 517.278 347.142 525.817C364.029 534.356 368.848 543.777 373.475 552.865C377.41 560.593 381.465 568.56 393.773 576.956Z" fill="url(#paint35_linear_888_6414)"/>
<path d="M433.748 502.585C418.507 496.765 409.276 498.292 400.284 499.77C390.195 501.44 379.771 503.157 362.884 494.618C354.536 490.397 349.145 485.984 345.281 481.476C341.298 476.849 338.913 472.15 336.575 467.546C332.044 458.673 327.369 449.514 310.291 439.735C310.839 439.377 311.388 439.043 311.912 438.709C312.485 438.375 313.057 438.018 313.654 437.684C314.894 436.992 316.158 436.324 317.422 435.656C333.475 445.746 338.46 455.501 342.92 464.279C345.401 469.144 347.667 473.605 351.698 477.922C354.989 481.428 359.426 484.839 366.104 488.202C380.916 495.692 389.36 494.308 399.139 492.686C408.012 491.208 417.791 489.633 432.866 494.642C433.081 496.002 433.271 497.361 433.438 498.721C433.581 500.009 433.701 501.297 433.748 502.585Z" fill="white"/>
<path d="M397.231 574.835C396.11 575.574 394.941 576.266 393.773 576.958C392.652 577.602 391.507 578.222 390.338 578.842C377.363 569.659 372.831 560.834 368.776 552.82C364.292 543.994 360.404 536.386 345.568 528.896C330.756 521.407 322.312 522.79 312.533 524.412C310.505 524.746 308.454 525.08 306.284 525.342C298.031 526.344 288.347 526.32 274.393 520.834C274.298 520.19 274.203 519.57 274.107 518.926C274.012 518.258 273.916 517.566 273.845 516.851C273.678 515.467 273.535 514.084 273.439 512.677C290.732 520.309 300.75 519.069 310.219 517.543C310.625 517.495 311.006 517.423 311.388 517.352C321.453 515.682 331.901 513.965 348.788 522.504C365.675 531.043 370.469 540.464 375.12 549.576C379.247 557.662 383.516 566.01 397.231 574.835Z" fill="white"/>
<path opacity="0.74" d="M425.258 543.658C418.579 556.825 408.8 567.391 397.231 574.857C396.11 575.596 394.942 576.288 393.773 576.98C392.652 577.624 391.507 578.244 390.338 578.864C389.742 579.174 389.098 579.484 388.502 579.77C387.881 580.081 387.261 580.367 386.641 580.653C365.27 590.265 339.891 590.504 317.351 579.103C309.957 575.358 303.398 570.635 297.745 565.149C297.769 560.236 298.15 555.251 298.937 550.242C300.13 542.657 302.157 535.43 304.924 528.608C305.377 527.511 305.831 526.414 306.308 525.34C306.975 523.814 307.691 522.335 308.454 520.856C309.027 519.735 309.623 518.638 310.219 517.541C318.067 503.539 329.182 491.828 342.42 483.265C343.374 482.645 344.328 482.049 345.306 481.453C346.403 480.785 347.476 480.164 348.621 479.568C349.647 478.996 350.696 478.447 351.746 477.922C369.372 469.073 389.837 465.424 410.803 468.716C416.003 469.527 421.036 470.743 425.902 472.317C429.312 479.377 431.698 486.915 432.938 494.666C433.153 496.026 433.343 497.386 433.51 498.745C433.653 500.033 433.749 501.297 433.82 502.585C433.868 503.253 433.892 503.921 433.916 504.589C433.94 505.257 433.964 505.925 433.964 506.592C434.059 519.067 431.268 531.756 425.258 543.658Z" fill="url(#paint36_linear_888_6414)"/>
<path opacity="0.28" d="M403.886 444.744C359.903 425.591 298.103 436.11 275.348 489.014C276.779 482.955 278.95 476.945 281.884 471.149C287.966 459.151 296.624 449.348 306.88 442.049C307.453 441.62 308.025 441.238 308.574 440.856C309.146 440.475 309.719 440.093 310.315 439.735C310.864 439.378 311.412 439.044 311.937 438.71C312.51 438.352 313.082 438.018 313.678 437.684C314.895 436.993 316.159 436.325 317.447 435.657C339.438 424.613 366.2 423.755 389.838 435.728C394.918 438.28 399.617 441.31 403.886 444.744Z" fill="white"/>
<path d="M616.957 385.925C723.527 385.925 809.919 299.533 809.919 192.963C809.919 86.3923 723.527 0 616.957 0C510.386 0 423.994 86.3923 423.994 192.963C423.994 299.533 510.386 385.925 616.957 385.925Z" fill="url(#paint37_linear_888_6414)"/>
<path d="M616.956 340.559C698.471 340.559 764.552 274.478 764.552 192.962C764.552 111.447 698.471 45.3662 616.956 45.3662C535.441 45.3662 469.36 111.447 469.36 192.962C469.36 274.478 535.441 340.559 616.956 340.559Z" fill="url(#paint38_linear_888_6414)"/>
<path d="M732.567 284.722C737.934 277.972 742.681 270.769 746.783 263.184L616.957 192.987L714.822 303.47C721.262 297.745 727.201 291.472 732.567 284.722Z" fill="url(#paint39_linear_888_6414)"/>
<path d="M763.575 176.075C762.597 167.512 760.856 159.045 758.399 150.792L616.957 192.962L764.291 201.883C764.792 193.272 764.553 184.638 763.575 176.075Z" fill="url(#paint40_linear_888_6414)"/>
<path d="M708.692 77.3525C701.942 71.9858 694.738 67.2393 687.153 63.1367L616.957 192.963L727.439 95.0984C721.715 88.6345 715.442 82.6953 708.692 77.3525Z" fill="url(#paint41_linear_888_6414)"/>
<path d="M600.07 46.3437C591.507 47.3216 583.04 49.0628 574.787 51.5196L616.957 192.962L625.878 45.6282C617.267 45.1273 608.633 45.3419 600.07 46.3437Z" fill="url(#paint42_linear_888_6414)"/>
<path d="M501.323 101.228C495.956 107.978 491.209 115.182 487.107 122.767L616.933 192.963L519.068 82.4805C512.628 88.2049 506.689 94.4781 501.323 101.228Z" fill="url(#paint43_linear_888_6414)"/>
<path d="M470.314 209.85C471.292 218.413 473.034 226.88 475.49 235.133L616.933 192.963L469.599 184.042C469.098 192.653 469.337 201.287 470.314 209.85Z" fill="url(#paint44_linear_888_6414)"/>
<path d="M525.198 308.598C531.948 313.965 539.151 318.711 546.736 322.814L616.933 192.987L506.45 290.852C512.175 297.292 518.448 303.231 525.198 308.598Z" fill="url(#paint45_linear_888_6414)"/>
<path d="M633.844 339.606C642.407 338.628 650.874 336.886 659.127 334.43L616.957 192.987L608.036 340.321C616.647 340.822 625.257 340.583 633.844 339.606Z" fill="url(#paint46_linear_888_6414)"/>
<path d="M699.398 222.555C715.757 177.032 692.115 126.867 646.593 110.508C601.07 94.1485 550.905 117.79 534.546 163.312C518.187 208.835 541.828 259 587.351 275.359C632.873 291.719 683.038 268.077 699.398 222.555Z" stroke="url(#paint47_linear_888_6414)" strokeWidth="3.5" stroke-miterlimit="10" strokeLinecap="round" strokeLinejoin="round"/>
<path opacity="0.74" d="M547.69 111.341C553.039 111.341 557.374 102.274 557.374 91.0902C557.374 79.9063 553.039 70.8398 547.69 70.8398C542.342 70.8398 538.007 79.9063 538.007 91.0902C538.007 102.274 542.342 111.341 547.69 111.341Z" fill="url(#paint48_linear_888_6414)"/>
<path d="M547.69 75.9202L469.336 36.8506" stroke="url(#paint49_linear_888_6414)" strokeWidth="3" stroke-miterlimit="10" strokeLinecap="round" strokeLinejoin="round"/>
<path d="M499.175 51.7118L476.921 56.9831L431.984 36.6612L464.733 32.6302L457.84 5.58203L495.24 34.8246L499.175 51.7118Z" fill="url(#paint50_linear_888_6414)"/>
<path d="M499.175 51.7095L476.921 56.9808L431.984 36.6589L464.733 32.6279L499.175 51.7095Z" fill="url(#paint51_linear_888_6414)"/>
<path opacity="0.74" d="M525.413 157.97C530.761 157.97 535.097 148.904 535.097 137.72C535.097 126.536 530.761 117.47 525.413 117.47C520.065 117.47 515.729 126.536 515.729 137.72C515.729 148.904 520.065 157.97 525.413 157.97Z" fill="url(#paint52_linear_888_6414)"/>
<path d="M526.533 123.053L440.26 138.008" stroke="url(#paint53_linear_888_6414)" strokeWidth="3" stroke-miterlimit="10" strokeLinecap="round" strokeLinejoin="round"/>
<path d="M473.105 132.306L458.293 149.742L410.04 159.998L434.059 137.339L412.473 119.641L459.915 121.048L473.105 132.306Z" fill="url(#paint54_linear_888_6414)"/>
<path d="M473.105 132.306L458.293 149.741L410.04 159.998L434.059 137.338L473.105 132.306Z" fill="url(#paint55_linear_888_6414)"/>
<path d="M804.934 494.474C804.934 497.551 804.862 500.604 804.719 503.633C804.624 505.875 804.504 508.117 804.337 510.312C802.382 536.334 795.632 561.045 784.97 583.538C784.063 585.446 783.157 587.33 782.179 589.214C747.713 656.501 677.707 702.559 596.897 702.559C562.049 702.559 529.181 693.972 500.344 678.826C497.219 677.204 494.142 675.463 491.137 673.698C430.624 637.896 389.814 572.327 388.86 497.146C388.836 496.263 388.836 495.381 388.836 494.498C388.836 492.9 388.86 491.326 388.907 489.728C389.265 473.651 391.436 458.004 395.276 443.025V443.001C395.944 440.354 396.659 437.754 397.422 435.178C398.734 430.67 400.237 426.257 401.859 421.893C402.646 419.746 403.481 417.623 404.363 415.524V415.5C413.475 393.294 426.307 373.044 442.121 355.465C443.457 353.986 444.793 352.531 446.176 351.076C479.879 315.656 525.937 292.114 577.457 287.319C577.481 287.319 577.481 287.319 577.481 287.319C583.206 286.795 589.025 286.485 594.893 286.437C595.561 286.413 596.229 286.413 596.921 286.413C632.555 286.413 666.115 295.381 695.429 311.171C701.321 314.344 707.021 317.778 712.555 321.476C716.061 323.837 719.496 326.27 722.835 328.822C737.767 340.199 751.124 353.533 762.501 368.464C789.096 403.431 804.934 447.104 804.934 494.474Z" fill="url(#paint56_linear_888_6414)"/>
<path d="M482.313 421.941C477.59 437.85 473.988 454.642 471.555 471.934C474.632 472.221 477.805 472.626 481.12 473.056C486.153 473.723 490.995 474.534 495.646 475.488C532.76 482.978 558.973 498.41 588.788 515.989C632.962 542.036 682.86 571.421 784.971 583.514C784.064 585.422 783.158 587.307 782.18 589.191C680.236 576.836 630.171 547.307 585.759 521.141C555.944 503.562 529.754 488.154 492.593 480.974C488.633 480.211 484.555 479.543 480.333 478.971C477.017 478.542 473.845 478.16 470.768 477.85C470.077 483.193 469.528 488.583 469.075 493.998C466.141 528.559 467.691 564.289 473.821 597.945C479.474 628.928 488.514 656.287 500.345 678.803C497.22 677.181 494.143 675.44 491.138 673.675C480.953 652.256 473.082 627.068 467.978 599.018C461.251 562.286 459.963 523.121 463.899 485.578C464.185 482.835 464.519 480.068 464.853 477.349C462.372 477.182 459.939 477.063 457.602 476.991C421.776 475.822 404.006 485.888 388.908 497.146C388.884 496.264 388.884 495.381 388.884 494.499C388.884 492.9 388.908 491.326 388.956 489.728C403.386 479.496 420.846 470.813 452.426 470.933C456.552 470.933 460.965 471.124 465.64 471.457C468.121 453.759 471.794 436.562 476.636 420.271C476.874 419.46 477.113 418.649 477.351 417.862C450.112 417.123 424.615 418.458 401.884 421.893C402.671 419.746 403.506 417.623 404.388 415.525V415.501C427.071 412.328 452.331 411.16 479.212 411.971C483.434 399.091 488.276 386.974 493.809 375.668C463.803 373.283 451.305 364.434 442.146 355.465C443.482 353.986 444.817 352.531 446.201 351.076C455.121 359.83 466.809 367.94 496.719 369.872C506.904 350.385 519.069 333.45 533.165 319.234C546.522 305.805 561.31 295.143 577.458 287.32C577.482 287.32 577.482 287.32 577.482 287.32C583.207 286.795 589.026 286.485 594.894 286.438C550.148 302.371 521.525 336.455 503.469 370.11C529.086 370.134 556.635 359.52 585.711 348.31C624.208 333.498 666.116 317.374 712.532 321.452C716.038 323.814 719.473 326.247 722.812 328.799C673.2 321.023 628.573 338.196 587.858 353.867C558.257 365.268 530.207 376.049 503.517 376.049C502.491 376.049 501.418 376.026 500.392 376.002C494.072 388.596 489.182 400.975 485.437 412.161C502.611 412.877 520.38 414.38 538.603 416.646C568.132 420.319 598.734 426.067 629.456 433.819C695.716 450.539 756.205 474.821 804.768 503.61C804.672 505.852 804.553 508.094 804.386 510.289C755.919 481.094 694.953 456.478 628.001 439.591C596.039 431.529 564.244 425.638 533.69 422.012C516.516 419.961 499.725 418.625 483.553 418.029C483.076 419.365 482.694 420.653 482.313 421.941Z" fill="#601D03"/>
<path opacity="0.28" d="M695.382 311.172C571.566 274.559 429.599 333.903 395.252 442.978C395.92 440.33 396.636 437.731 397.399 435.155C398.711 430.647 400.213 426.234 401.835 421.869C402.623 419.722 403.457 417.599 404.34 415.5V415.477C413.451 393.27 426.284 373.02 442.098 355.441C443.433 353.962 444.769 352.507 446.152 351.052C479.855 315.632 525.914 292.09 577.434 287.296C577.458 287.296 577.458 287.296 577.458 287.296C583.182 286.771 589.002 286.461 594.87 286.413C595.538 286.39 596.205 286.39 596.897 286.39C632.508 286.414 666.068 295.382 695.382 311.172Z" fill="white"/>
<path opacity="0.74" d="M804.934 494.475C804.934 497.552 804.863 500.605 804.72 503.635C804.624 505.877 804.505 508.119 804.338 510.313C802.382 536.336 795.632 561.046 784.97 583.539C784.064 585.447 783.157 587.331 782.179 589.216C747.713 656.502 677.708 702.56 596.897 702.56C562.049 702.56 529.181 693.974 500.344 678.828C497.22 677.206 494.143 675.464 491.137 673.699C430.625 637.898 389.814 572.328 388.86 497.147C388.836 496.264 388.836 495.382 388.836 494.499C388.836 492.901 388.86 491.327 388.908 489.729C389.313 470.814 392.271 452.52 397.423 435.179C422.42 443.647 440.094 457.362 452.378 470.934C454.214 472.961 455.932 474.988 457.554 477.016C459.891 479.95 461.99 482.812 463.851 485.626C465.83 488.56 467.548 491.399 469.05 494.022C469.122 494.142 469.17 494.237 469.241 494.356C472.962 500.963 482.527 500.725 485.866 493.927C487.774 490.063 490.016 485.722 492.592 481.023C493.546 479.258 494.572 477.421 495.645 475.561C504.733 459.652 517.327 440.546 533.665 422.085C535.263 420.272 536.885 418.483 538.579 416.694C584.446 367.63 657.577 326.271 762.478 368.513C789.096 403.432 804.934 447.105 804.934 494.475Z" fill="url(#paint57_linear_888_6414)"/>
<defs>
<linearGradient id="paint0_linear_888_6414" x1="407.724" y1="185.453" x2="409.274" y2="638.974" gradientUnits="userSpaceOnUse">
<stop stopColor="white"/>
<stop offset="1" stopColor="#BDBFC1"/>
</linearGradient>
<linearGradient id="paint1_linear_888_6414" x1="381.333" y1="185.543" x2="382.883" y2="639.064" gradientUnits="userSpaceOnUse">
<stop stopColor="white"/>
<stop offset="1" stopColor="#BDBFC1"/>
</linearGradient>
<linearGradient id="paint2_linear_888_6414" x1="570.668" y1="184.896" x2="572.218" y2="638.415" gradientUnits="userSpaceOnUse">
<stop stopColor="white"/>
<stop offset="1" stopColor="#BDBFC1"/>
</linearGradient>
<linearGradient id="paint3_linear_888_6414" x1="497.442" y1="185.147" x2="498.991" y2="638.666" gradientUnits="userSpaceOnUse">
<stop stopColor="white"/>
<stop offset="1" stopColor="#BDBFC1"/>
</linearGradient>
<linearGradient id="paint4_linear_888_6414" x1="391.385" y1="394.584" x2="311.257" y2="217.953" gradientUnits="userSpaceOnUse">
<stop stopColor="white"/>
<stop offset="1" stopColor="#00227A"/>
</linearGradient>
<linearGradient id="paint5_linear_888_6414" x1="376.055" y1="419.232" x2="248.903" y2="142.871" gradientUnits="userSpaceOnUse">
<stop stopColor="white"/>
<stop offset="1" stopColor="#00227A"/>
</linearGradient>
<linearGradient id="paint6_linear_888_6414" x1="358.325" y1="387.83" x2="401.218" y2="198.573" gradientUnits="userSpaceOnUse">
<stop stopColor="white"/>
<stop offset="1" stopColor="#00227A"/>
</linearGradient>
<linearGradient id="paint7_linear_888_6414" x1="417.741" y1="400.051" x2="290.588" y2="123.688" gradientUnits="userSpaceOnUse">
<stop stopColor="white"/>
<stop offset="1" stopColor="#00227A"/>
</linearGradient>
<linearGradient id="paint8_linear_888_6414" x1="405.732" y1="349.434" x2="211.695" y2="352.075" gradientUnits="userSpaceOnUse">
<stop stopColor="white"/>
<stop offset="1" stopColor="#00227A"/>
</linearGradient>
<linearGradient id="paint9_linear_888_6414" x1="338.36" y1="314.715" x2="415.427" y2="409.867" gradientUnits="userSpaceOnUse">
<stop stopColor="white"/>
<stop offset="1" stopColor="#00227A"/>
</linearGradient>
<linearGradient id="paint10_linear_888_6414" x1="357.146" y1="342.445" x2="340.763" y2="310.715" gradientUnits="userSpaceOnUse">
<stop stopColor="#FF1B31"/>
<stop offset="1" stopColor="#FFA7A1"/>
</linearGradient>
<linearGradient id="paint11_linear_888_6414" x1="269.746" y1="43.9767" x2="273.446" y2="115.901" gradientUnits="userSpaceOnUse">
<stop offset="0.00558659" stopColor="#98ED54"/>
<stop offset="1" stopColor="#2C8100"/>
</linearGradient>
<linearGradient id="paint12_linear_888_6414" x1="296.451" y1="-36.328" x2="278.925" y2="87.0975" gradientUnits="userSpaceOnUse">
<stop offset="0.00558659" stopColor="#98ED54"/>
<stop offset="1" stopColor="#2C8100"/>
</linearGradient>
<linearGradient id="paint13_linear_888_6414" x1="280.169" y1="-44.4106" x2="263.949" y2="69.8223" gradientUnits="userSpaceOnUse">
<stop offset="0.00558659" stopColor="#98ED54"/>
<stop offset="1" stopColor="#2C8100"/>
</linearGradient>
<linearGradient id="paint14_linear_888_6414" x1="257.36" y1="39.8428" x2="332.209" y2="245.22" gradientUnits="userSpaceOnUse">
<stop stopColor="#00033B" stop-opacity="0"/>
<stop offset="1" stopColor="#00023A"/>
</linearGradient>
<linearGradient id="paint15_linear_888_6414" x1="320.069" y1="346.242" x2="283.394" y2="677.343" gradientUnits="userSpaceOnUse">
<stop stopColor="#FF9B78"/>
<stop offset="1" stopColor="#FF703D"/>
</linearGradient>
<linearGradient id="paint16_linear_888_6414" x1="266.37" y1="262.437" x2="258.45" y2="304.105" gradientUnits="userSpaceOnUse">
<stop stopColor="#FF9B78"/>
<stop offset="1" stopColor="#FF703D"/>
</linearGradient>
<linearGradient id="paint17_linear_888_6414" x1="400.928" y1="410.641" x2="355.128" y2="685.095" gradientUnits="userSpaceOnUse">
<stop stopColor="#FF9B78"/>
<stop offset="1" stopColor="#C44713"/>
</linearGradient>
<linearGradient id="paint18_linear_888_6414" x1="310.612" y1="554.914" x2="340.393" y2="525.968" gradientUnits="userSpaceOnUse">
<stop stopColor="#90003C"/>
<stop offset="1" stopColor="#FF3B40"/>
</linearGradient>
<linearGradient id="paint19_linear_888_6414" x1="325.301" y1="429.552" x2="288.627" y2="777.698" gradientUnits="userSpaceOnUse">
<stop stopColor="#00033B" stop-opacity="0"/>
<stop offset="1" stopColor="#00023A"/>
</linearGradient>
<linearGradient id="paint20_linear_888_6414" x1="105.218" y1="444.171" x2="-28.766" y2="516.112" gradientUnits="userSpaceOnUse">
<stop stopColor="#AC1B4A"/>
<stop offset="1" stopColor="#FF4568"/>
</linearGradient>
<linearGradient id="paint21_linear_888_6414" x1="123.021" y1="517.247" x2="-90.134" y2="451.808" gradientUnits="userSpaceOnUse">
<stop stopColor="#6F1B4A"/>
<stop offset="1" stopColor="#FF4568"/>
</linearGradient>
<linearGradient id="paint22_linear_888_6414" x1="98.733" y1="467.495" x2="-2.54332" y2="436.403" gradientUnits="userSpaceOnUse">
<stop stopColor="#6F1B4A"/>
<stop offset="1" stopColor="#FF4568"/>
</linearGradient>
<linearGradient id="paint23_linear_888_6414" x1="207.227" y1="460.657" x2="87.6532" y2="506.156" gradientUnits="userSpaceOnUse">
<stop stopColor="#AC1B4A"/>
<stop offset="1" stopColor="#FF4568"/>
</linearGradient>
<linearGradient id="paint24_linear_888_6414" x1="160.688" y1="560.999" x2="73.0845" y2="303.177" gradientUnits="userSpaceOnUse">
<stop stopColor="#6F1B4A"/>
<stop offset="1" stopColor="#FF4568"/>
</linearGradient>
<linearGradient id="paint25_linear_888_6414" x1="-7.25362" y1="499.82" x2="170.245" y2="544.289" gradientUnits="userSpaceOnUse">
<stop stopColor="#754D98"/>
<stop offset="1" stopColor="#2A224F"/>
</linearGradient>
<linearGradient id="paint26_linear_888_6414" x1="204.019" y1="508.347" x2="456.381" y2="104.929" gradientUnits="userSpaceOnUse">
<stop stopColor="#1B52CA"/>
<stop offset="1" stopColor="#0BC7FF"/>
</linearGradient>
<linearGradient id="paint27_linear_888_6414" x1="283.299" y1="481.344" x2="204.887" y2="647.894" gradientUnits="userSpaceOnUse">
<stop stopColor="#754D98"/>
<stop offset="1" stopColor="#2A224F"/>
</linearGradient>
<linearGradient id="paint28_linear_888_6414" x1="234.849" y1="362.838" x2="255.012" y2="326.86" gradientUnits="userSpaceOnUse">
<stop stopColor="#1B52CA"/>
<stop offset="1" stopColor="#0BC7FF"/>
</linearGradient>
<linearGradient id="paint29_linear_888_6414" x1="363.187" y1="419.613" x2="387.29" y2="376.604" gradientUnits="userSpaceOnUse">
<stop stopColor="#1B52CA"/>
<stop offset="1" stopColor="#0BC7FF"/>
</linearGradient>
<linearGradient id="paint30_linear_888_6414" x1="185.795" y1="433.029" x2="531.078" y2="605.022" gradientUnits="userSpaceOnUse">
<stop stopColor="#FF6B00"/>
<stop offset="1" stopColor="#FF9700"/>
</linearGradient>
<linearGradient id="paint31_linear_888_6414" x1="234.408" y1="402.63" x2="100.855" y2="145.875" gradientUnits="userSpaceOnUse">
<stop stopColor="#FF6B00"/>
<stop offset="1" stopColor="#FF9700"/>
</linearGradient>
<linearGradient id="paint32_linear_888_6414" x1="260.803" y1="442.402" x2="215.368" y2="366.898" gradientUnits="userSpaceOnUse">
<stop stopColor="#FF6B00"/>
<stop offset="1" stopColor="#FFC93B"/>
</linearGradient>
<linearGradient id="paint33_linear_888_6414" x1="337.837" y1="428.271" x2="367.84" y2="579.211" gradientUnits="userSpaceOnUse">
<stop offset="0.00558659" stopColor="#98ED54"/>
<stop offset="1" stopColor="#2C8100"/>
</linearGradient>
<linearGradient id="paint34_linear_888_6414" x1="369.574" y1="250.268" x2="370.539" y2="516.61" gradientUnits="userSpaceOnUse">
<stop offset="0.00558659" stopColor="#98ED54"/>
<stop offset="1" stopColor="#2C8100"/>
</linearGradient>
<linearGradient id="paint35_linear_888_6414" x1="332.663" y1="238.211" x2="333.556" y2="484.716" gradientUnits="userSpaceOnUse">
<stop offset="0.00558659" stopColor="#98ED54"/>
<stop offset="1" stopColor="#2C8100"/>
</linearGradient>
<linearGradient id="paint36_linear_888_6414" x1="310.373" y1="423.349" x2="531.965" y2="834.527" gradientUnits="userSpaceOnUse">
<stop stopColor="#00033B" stop-opacity="0"/>
<stop offset="1" stopColor="#00023A"/>
</linearGradient>
<linearGradient id="paint37_linear_888_6414" x1="556.404" y1="36.6648" x2="650.581" y2="279.801" gradientUnits="userSpaceOnUse">
<stop stopColor="#754D98"/>
<stop offset="1" stopColor="#2A224F"/>
</linearGradient>
<linearGradient id="paint38_linear_888_6414" x1="670.412" y1="56.0337" x2="337.595" y2="908.427" gradientUnits="userSpaceOnUse">
<stop stopColor="white"/>
<stop offset="1" stopColor="#00227A"/>
</linearGradient>
<linearGradient id="paint39_linear_888_6414" x1="601.032" y1="19.3792" x2="695.209" y2="262.515" gradientUnits="userSpaceOnUse">
<stop stopColor="#754D98"/>
<stop offset="1" stopColor="#2A224F"/>
</linearGradient>
<linearGradient id="paint40_linear_888_6414" x1="625.003" y1="10.0932" x2="719.18" y2="253.23" gradientUnits="userSpaceOnUse">
<stop stopColor="#754D98"/>
<stop offset="1" stopColor="#2A224F"/>
</linearGradient>
<linearGradient id="paint41_linear_888_6414" x1="620.921" y1="11.6753" x2="715.098" y2="254.812" gradientUnits="userSpaceOnUse">
<stop stopColor="#754D98"/>
<stop offset="1" stopColor="#2A224F"/>
</linearGradient>
<linearGradient id="paint42_linear_888_6414" x1="585.093" y1="25.5519" x2="679.27" y2="268.689" gradientUnits="userSpaceOnUse">
<stop stopColor="#754D98"/>
<stop offset="1" stopColor="#2A224F"/>
</linearGradient>
<linearGradient id="paint43_linear_888_6414" x1="511.777" y1="53.9513" x2="605.953" y2="297.087" gradientUnits="userSpaceOnUse">
<stop stopColor="#754D98"/>
<stop offset="1" stopColor="#2A224F"/>
</linearGradient>
<linearGradient id="paint44_linear_888_6414" x1="487.806" y1="63.2358" x2="581.983" y2="306.372" gradientUnits="userSpaceOnUse">
<stop stopColor="#754D98"/>
<stop offset="1" stopColor="#2A224F"/>
</linearGradient>
<linearGradient id="paint45_linear_888_6414" x1="491.887" y1="61.6556" x2="586.064" y2="304.792" gradientUnits="userSpaceOnUse">
<stop stopColor="#754D98"/>
<stop offset="1" stopColor="#2A224F"/>
</linearGradient>
<linearGradient id="paint46_linear_888_6414" x1="527.717" y1="47.7783" x2="621.894" y2="290.915" gradientUnits="userSpaceOnUse">
<stop stopColor="#754D98"/>
<stop offset="1" stopColor="#2A224F"/>
</linearGradient>
<linearGradient id="paint47_linear_888_6414" x1="695.247" y1="240.842" x2="538.699" y2="145.046" gradientUnits="userSpaceOnUse">
<stop stopColor="#FF1B31"/>
<stop offset="1" stopColor="#FFA7A1"/>
</linearGradient>
<linearGradient id="paint48_linear_888_6414" x1="528.325" y1="163.719" x2="564.103" y2="29.6093" gradientUnits="userSpaceOnUse">
<stop stopColor="#00033B" stop-opacity="0"/>
<stop offset="1" stopColor="#00023A"/>
</linearGradient>
<linearGradient id="paint49_linear_888_6414" x1="465.768" y1="56.382" x2="551.277" y2="56.382" gradientUnits="userSpaceOnUse">
<stop stopColor="#FF6B00"/>
<stop offset="1" stopColor="#FFC93B"/>
</linearGradient>
<linearGradient id="paint50_linear_888_6414" x1="495.199" y1="101.622" x2="435.183" y2="-23.49" gradientUnits="userSpaceOnUse">
<stop stopColor="#FF6B00"/>
<stop offset="1" stopColor="#FFC93B"/>
</linearGradient>
<linearGradient id="paint51_linear_888_6414" x1="468.229" y1="54.6464" x2="489.927" y2="139.898" gradientUnits="userSpaceOnUse">
<stop stopColor="#FF6B00"/>
<stop offset="1" stopColor="#FFC93B"/>
</linearGradient>
<linearGradient id="paint52_linear_888_6414" x1="506.051" y1="210.345" x2="541.829" y2="76.2351" gradientUnits="userSpaceOnUse">
<stop stopColor="#00033B" stop-opacity="0"/>
<stop offset="1" stopColor="#00023A"/>
</linearGradient>
<linearGradient id="paint53_linear_888_6414" x1="448.95" y1="155.852" x2="517.839" y2="105.194" gradientUnits="userSpaceOnUse">
<stop stopColor="#FF6B00"/>
<stop offset="1" stopColor="#FFC93B"/>
</linearGradient>
<linearGradient id="paint54_linear_888_6414" x1="499.461" y1="174.861" x2="376.992" y2="109.623" gradientUnits="userSpaceOnUse">
<stop stopColor="#FF6B00"/>
<stop offset="1" stopColor="#FFC93B"/>
</linearGradient>
<linearGradient id="paint55_linear_888_6414" x1="449.906" y1="152.995" x2="517.886" y2="208.818" gradientUnits="userSpaceOnUse">
<stop stopColor="#FF6B00"/>
<stop offset="1" stopColor="#FFC93B"/>
</linearGradient>
<linearGradient id="paint56_linear_888_6414" x1="505.638" y1="291.641" x2="649.056" y2="610.485" gradientUnits="userSpaceOnUse">
<stop offset="0.00558659" stopColor="#FFA500"/>
<stop offset="1" stopColor="#9D3300"/>
</linearGradient>
<linearGradient id="paint57_linear_888_6414" x1="451.428" y1="214.773" x2="1003.56" y2="1276.57" gradientUnits="userSpaceOnUse">
<stop stopColor="#00033B" stop-opacity="0"/>
<stop offset="1" stopColor="#00023A"/>
</linearGradient>
</defs>
</svg>
